  0
SECTION
  2
HEADER
  9
$ACADVER
  1
AC1014
  9
$HANDSEED
  5
FFFF
  9
$MEASUREMENT
 70
     1
  0
ENDSEC
  0
SECTION
  2
TABLES
  0
TABLE
  2
VPORT
  5
8
330
0
100
AcDbSymbolTable
 70
     4
  0
VPORT
  5
2E
330
8
100
AcDbSymbolTableRecord
100
AcDbViewportTableRecord
  2
*ACTIVE
 70
     0
 10
0.0
 20
0.0
 11
1.0
 21
1.0
 12
210.0
 22
148.5
 13
0.0
 23
0.0
 14
10.0
 24
10.0
 15
10.0
 25
10.0
 16
0.0
 26
0.0
 36
1.0
 17
0.0
 27
0.0
 37
0.0
 40
341.0
 41
1.24
 42
50.0
 43
0.0
 44
0.0
 50
0.0
 51
0.0
 71
     0
 72
   100
 73
     1
 74
     3
 75
     0
 76
     0
 77
     0
 78
     0
  0
ENDTAB
  0
TABLE
  2
LTYPE
  5
5
330
0
100
AcDbSymbolTable
 70
     1
  0
LTYPE
  5
14
330
5
100
AcDbSymbolTableRecord
100
AcDbLinetypeTableRecord
  2
BYBLOCK
 70
     0
  3

 72
    65
 73
     0
 40
0.0
  0
LTYPE
  5
15
330
5
100
AcDbSymbolTableRecord
100
AcDbLinetypeTableRecord
  2
BYLAYER
 70
     0
  3

 72
    65
 73
     0
 40
0.0
  0
LTYPE
  5
16
330
5
100
AcDbSymbolTableRecord
100
AcDbLinetypeTableRecord
  2
CONTINUOUS
 70
     0
  3
Solid line
 72
    65
 73
     0
 40
0.0
  0
ENDTAB
  0
TABLE
  2
LAYER
  5
2
100
AcDbSymbolTable
 70
2
  0
LAYER
  5
50
100
AcDbSymbolTableRecord
100
AcDbLayerTableRecord
  2
0
 70
0
  6
CONTINUOUS
  0
LAYER
  5
51
100
AcDbSymbolTableRecord
100
AcDbLayerTableRecord
  2
Layer_1
 70
0
  6
CONTINUOUS
  0
ENDTAB
  0
TABLE
  2
STYLE
  5
3
330
0
100
AcDbSymbolTable
 70
     1
  0
STYLE
  5
11
330
3
100
AcDbSymbolTableRecord
100
AcDbTextStyleTableRecord
  2
STANDARD
 70
     0
 40
0.0
 41
1.0
 50
0.0
 71
     0
 42
2.5
  3
txt
  4

  0
ENDTAB
  0
TABLE
  2
VIEW
  5
6
330
0
100
AcDbSymbolTable
 70
     0
  0
ENDTAB
  0
TABLE
  2
UCS
  5
7
330
0
100
AcDbSymbolTable
 70
     0
  0
ENDTAB
  0
TABLE
  2
APPID
  5
9
330
0
100
AcDbSymbolTable
 70
     2
  0
APPID
  5
12
330
9
100
AcDbSymbolTableRecord
100
AcDbRegAppTableRecord
  2
ACAD
 70
     0
  0
ENDTAB
  0
TABLE
  2
DIMSTYLE
  5
A
330
0
100
AcDbSymbolTable
 70
     1
  0
DIMSTYLE
105
27
330
A
100
AcDbSymbolTableRecord
100
AcDbDimStyleTableRecord
  2
ISO-25
 70
     0
  3

  4

  5

  6

  7

 40
1.0
 41
2.5
 42
0.625
 43
3.75
 44
1.25
 45
0.0
 46
0.0
 47
0.0
 48
0.0
140
2.5
141
2.5
142
0.0
143
0.03937007874016
144
1.0
145
0.0
146
1.0
147
0.625
 71
     0
 72
     0
 73
     0
 74
     0
 75
     0
 76
     0
 77
     1
 78
     8
170
     0
171
     3
172
     1
173
     0
174
     0
175
     0
176
     0
177
     0
178
     0
270
     2
271
     2
272
     2
273
     2
274
     3
340
11
275
     0
280
     0
281
     0
282
     0
283
     0
284
     8
285
     0
286
     0
287
     3
288
     0
  0
ENDTAB
  0
TABLE
  2
BLOCK_RECORD
  5
1
330
0
100
AcDbSymbolTable
 70
     1
  0
BLOCK_RECORD
  5
1F
330
1
100
AcDbSymbolTableRecord
100
AcDbBlockTableRecord
  2
*MODEL_SPACE
  0
BLOCK_RECORD
  5
1B
330
1
100
AcDbSymbolTableRecord
100
AcDbBlockTableRecord
  2
*PAPER_SPACE
  0
ENDTAB
  0
ENDSEC
  0
SECTION
  2
BLOCKS
  0
BLOCK
  5
20
330
1F
100
AcDbEntity
  8
0
100
AcDbBlockBegin
  2
*MODEL_SPACE
 70
     0
 10
0.0
 20
0.0
 30
0.0
  3
*MODEL_SPACE
  1

  0
ENDBLK
  5
21
330
1F
100
AcDbEntity
  8
0
100
AcDbBlockEnd
  0
BLOCK
  5
1C
330
1B
100
AcDbEntity
 67
     1
  8
0
100
AcDbBlockBegin
  2
*PAPER_SPACE
  1

  0
ENDBLK
  5
1D
330
1B
100
AcDbEntity
 67
     1
  8
0
100
AcDbBlockEnd
  0
ENDSEC
  0
SECTION
  2
ENTITIES
  0
SPLINE
  5
100
100
AcDbEntity
  8
Layer_1
 62
7
100
AcDbSpline
 70
8
 71
3
 72
8
 73
4
 74
0
 40
0
 40
0
 40
0
 40
0
 40
1
 40
1
 40
1
 40
1
 10
10.442794
 20
69.505444
 30
0.0
 10
11.470442
 20
70.161879
 30
0.0
 10
12.835268
 20
69.860556
 30
0.0
 10
13.491512
 20
68.832356
 30
0.0
  0
SPLINE
  5
101
100
AcDbEntity
  8
Layer_1
 62
7
100
AcDbSpline
 70
8
 71
3
 72
8
 73
4
 74
0
 40
0
 40
0
 40
0
 40
0
 40
1
 40
1
 40
1
 40
1
 10
13.491512
 20
68.832356
 30
0.0
 10
14.147756
 20
67.804155
 30
0.0
 10
13.847009
 20
66.438283
 30
0.0
 10
12.819711
 20
65.781301
 30
0.0
  0
SPLINE
  5
102
100
AcDbEntity
  8
Layer_1
 62
7
100
AcDbSpline
 70
8
 71
3
 72
8
 73
4
 74
0
 40
0
 40
0
 40
0
 40
0
 40
1
 40
1
 40
1
 40
1
 10
12.819711
 20
65.781301
 30
0.0
 10
11.792413
 20
65.124319
 30
0.0
 10
10.427426
 20
65.424915
 30
0.0
 10
9.770635
 20
66.452765
 30
0.0
  0
SPLINE
  5
103
100
AcDbEntity
  8
Layer_1
 62
7
100
AcDbSpline
 70
8
 71
3
 72
8
 73
4
 74
0
 40
0
 40
0
 40
0
 40
0
 40
1
 40
1
 40
1
 40
1
 10
9.770635
 20
66.452765
 30
0.0
 10
9.113844
 20
67.480616
 30
0.0
 10
9.413864
 20
68.846648
 30
0.0
 10
10.440813
 20
69.504177
 30
0.0
  0
SPLINE
  5
104
100
AcDbEntity
  8
Layer_1
 62
7
100
AcDbSpline
 70
8
 71
3
 72
8
 73
4
 74
0
 40
0
 40
0
 40
0
 40
0
 40
1
 40
1
 40
1
 40
1
 10
6.670046
 20
75.414534
 30
0.0
 10
10.961308
 20
78.153742
 30
0.0
 10
16.660564
 20
76.896364
 30
0.0
 10
19.400915
 20
72.605831
 30
0.0
  0
SPLINE
  5
105
100
AcDbEntity
  8
Layer_1
 62
7
100
AcDbSpline
 70
8
 71
3
 72
8
 73
4
 74
0
 40
0
 40
0
 40
0
 40
0
 40
1
 40
1
 40
1
 40
1
 10
19.400915
 20
72.605831
 30
0.0
 10
22.141266
 20
68.315299
 30
0.0
 10
20.885405
 20
62.615708
 30
0.0
 10
16.595601
 20
59.874216
 30
0.0
  0
SPLINE
  5
106
100
AcDbEntity
  8
Layer_1
 62
7
100
AcDbSpline
 70
8
 71
3
 72
8
 73
4
 74
0
 40
0
 40
0
 40
0
 40
0
 40
1
 40
1
 40
1
 40
1
 10
16.595601
 20
59.874216
 30
0.0
 10
12.305797
 20
57.132724
 30
0.0
 10
6.605872
 20
58.387068
 30
0.0
 10
3.863238
 20
62.676141
 30
0.0
  0
SPLINE
  5
107
100
AcDbEntity
  8
Layer_1
 62
7
100
AcDbSpline
 70
8
 71
3
 72
8
 73
4
 74
0
 40
0
 40
0
 40
0
 40
0
 40
1
 40
1
 40
1
 40
1
 10
3.863238
 20
62.676141
 30
0.0
 10
1.120604
 20
66.965214
 30
0.0
 10
2.373431
 20
72.665472
 30
0.0
 10
6.661774
 20
75.409248
 30
0.0
  0
SPLINE
  5
108
100
AcDbEntity
  8
Layer_1
 62
7
100
AcDbSpline
 70
8
 71
3
 72
8
 73
4
 74
0
 40
0
 40
0
 40
0
 40
0
 40
1
 40
1
 40
1
 40
1
 10
11.439183
 20
71.251694
 30
0.0
 10
11.604904
 20
71.358042
 30
0.0
 10
11.825000
 20
71.309225
 30
0.0
 10
11.930827
 20
71.142648
 30
0.0
  0
SPLINE
  5
109
100
AcDbEntity
  8
Layer_1
 62
7
100
AcDbSpline
 70
8
 71
3
 72
8
 73
4
 74
0
 40
0
 40
0
 40
0
 40
0
 40
1
 40
1
 40
1
 40
1
 10
11.930827
 20
71.142648
 30
0.0
 10
12.036655
 20
70.976072
 30
0.0
 10
11.988156
 20
70.754789
 30
0.0
 10
11.822491
 20
70.648353
 30
0.0
  0
SPLINE
  5
10a
100
AcDbEntity
  8
Layer_1
 62
7
100
AcDbSpline
 70
8
 71
3
 72
8
 73
4
 74
0
 40
0
 40
0
 40
0
 40
0
 40
1
 40
1
 40
1
 40
1
 10
11.822491
 20
70.648353
 30
0.0
 10
11.656826
 20
70.541916
 30
0.0
 10
11.436705
 20
70.590615
 30
0.0
 10
11.330789
 20
70.757136
 30
0.0
  0
SPLINE
  5
10b
100
AcDbEntity
  8
Layer_1
 62
7
100
AcDbSpline
 70
8
 71
3
 72
8
 73
4
 74
0
 40
0
 40
0
 40
0
 40
0
 40
1
 40
1
 40
1
 40
1
 10
11.330789
 20
70.757136
 30
0.0
 10
11.224874
 20
70.923656
 30
0.0
 10
11.273256
 20
71.144964
 30
0.0
 10
11.438864
 20
71.251489
 30
0.0
  0
SPLINE
  5
10c
100
AcDbEntity
  8
Layer_1
 62
7
100
AcDbSpline
 70
8
 71
3
 72
8
 73
4
 74
0
 40
0
 40
0
 40
0
 40
0
 40
1
 40
1
 40
1
 40
1
 10
11.439183
 20
64.637864
 30
0.0
 10
11.604904
 20
64.744212
 30
0.0
 10
11.825000
 20
64.695395
 30
0.0
 10
11.930827
 20
64.528818
 30
0.0
  0
SPLINE
  5
10d
100
AcDbEntity
  8
Layer_1
 62
7
100
AcDbSpline
 70
8
 71
3
 72
8
 73
4
 74
0
 40
0
 40
0
 40
0
 40
0
 40
1
 40
1
 40
1
 40
1
 10
11.930827
 20
64.528818
 30
0.0
 10
12.036655
 20
64.362241
 30
0.0
 10
11.988156
 20
64.140959
 30
0.0
 10
11.822491
 20
64.034522
 30
0.0
  0
SPLINE
  5
10e
100
AcDbEntity
  8
Layer_1
 62
7
100
AcDbSpline
 70
8
 71
3
 72
8
 73
4
 74
0
 40
0
 40
0
 40
0
 40
0
 40
1
 40
1
 40
1
 40
1
 10
11.822491
 20
64.034522
 30
0.0
 10
11.656826
 20
63.928086
 30
0.0
 10
11.436705
 20
63.976785
 30
0.0
 10
11.330789
 20
64.143305
 30
0.0
  0
SPLINE
  5
10f
100
AcDbEntity
  8
Layer_1
 62
7
100
AcDbSpline
 70
8
 71
3
 72
8
 73
4
 74
0
 40
0
 40
0
 40
0
 40
0
 40
1
 40
1
 40
1
 40
1
 10
11.330789
 20
64.143305
 30
0.0
 10
11.224873
 20
64.309825
 30
0.0
 10
11.273255
 20
64.531134
 30
0.0
 10
11.438864
 20
64.637659
 30
0.0
  0
LWPOLYLINE
  5
110
100
AcDbEntity
  8
Layer_1
 62
7
100
AcDbPolyline
 90
4
 70
1
 10
10.942839
 20
75.937743
 30
0.0
 10
12.318672
 20
75.937743
 30
0.0
 10
12.318672
 20
75.223368
 30
0.0
 10
10.942839
 20
75.223368
 30
0.0
  0
LWPOLYLINE
  5
111
100
AcDbEntity
  8
Layer_1
 62
7
100
AcDbPolyline
 90
4
 70
1
 10
4.138936
 20
71.207559
 30
0.0
 10
4.826853
 20
72.399065
 30
0.0
 10
5.445520
 20
72.041878
 30
0.0
 10
4.757603
 20
70.850371
 30
0.0
  0
LWPOLYLINE
  5
112
100
AcDbEntity
  8
Layer_1
 62
7
100
AcDbPolyline
 90
4
 70
1
 10
4.833445
 20
62.950112
 30
0.0
 10
4.145528
 20
64.141619
 30
0.0
 10
4.764195
 20
64.498807
 30
0.0
 10
5.452111
 20
63.307300
 30
0.0
  0
LWPOLYLINE
  5
113
100
AcDbEntity
  8
Layer_1
 62
7
100
AcDbPolyline
 90
4
 70
1
 10
12.331857
 20
59.422851
 30
0.0
 10
10.956024
 20
59.422851
 30
0.0
 10
10.956024
 20
60.137226
 30
0.0
 10
12.331857
 20
60.137226
 30
0.0
  0
LWPOLYLINE
  5
114
100
AcDbEntity
  8
Layer_1
 62
7
100
AcDbPolyline
 90
4
 70
1
 10
19.135761
 20
64.153037
 30
0.0
 10
18.447844
 20
62.961531
 30
0.0
 10
17.829177
 20
63.318718
 30
0.0
 10
18.517094
 20
64.510225
 30
0.0
  0
SPLINE
  5
115
100
AcDbEntity
  8
Layer_1
 62
7
100
AcDbSpline
 70
8
 71
3
 72
8
 73
4
 74
0
 40
0
 40
0
 40
0
 40
0
 40
1
 40
1
 40
1
 40
1
 10
7.320627
 20
74.535672
 30
0.0
 10
7.311461
 20
74.732244
 30
0.0
 10
7.463691
 20
74.898395
 30
0.0
 10
7.660676
 20
74.906815
 30
0.0
  0
SPLINE
  5
116
100
AcDbEntity
  8
Layer_1
 62
7
100
AcDbSpline
 70
8
 71
3
 72
8
 73
4
 74
0
 40
0
 40
0
 40
0
 40
0
 40
1
 40
1
 40
1
 40
1
 10
7.660676
 20
74.906815
 30
0.0
 10
7.857660
 20
74.915235
 30
0.0
 10
8.024834
 20
74.762738
 30
0.0
 10
8.034106
 20
74.566170
 30
0.0
  0
SPLINE
  5
117
100
AcDbEntity
  8
Layer_1
 62
7
100
AcDbSpline
 70
8
 71
3
 72
8
 73
4
 74
0
 40
0
 40
0
 40
0
 40
0
 40
1
 40
1
 40
1
 40
1
 10
8.034106
 20
74.566170
 30
0.0
 10
8.043377
 20
74.369602
 30
0.0
 10
7.891235
 20
74.203370
 30
0.0
 10
7.694256
 20
74.194845
 30
0.0
  0
SPLINE
  5
118
100
AcDbEntity
  8
Layer_1
 62
7
100
AcDbSpline
 70
8
 71
3
 72
8
 73
4
 74
0
 40
0
 40
0
 40
0
 40
0
 40
1
 40
1
 40
1
 40
1
 10
7.694256
 20
74.194845
 30
0.0
 10
7.497276
 20
74.186321
 30
0.0
 10
7.330021
 20
74.338729
 30
0.0
 10
7.320645
 20
74.535293
 30
0.0
  0
SPLINE
  5
119
100
AcDbEntity
  8
Layer_1
 62
7
100
AcDbSpline
 70
8
 71
3
 72
8
 73
4
 74
0
 40
0
 40
0
 40
0
 40
0
 40
1
 40
1
 40
1
 40
1
 10
3.518338
 20
67.427237
 30
0.0
 10
3.343518
 20
67.517585
 30
0.0
 10
3.275743
 20
67.732496
 30
0.0
 10
3.366943
 20
67.907299
 30
0.0
  0
SPLINE
  5
11a
100
AcDbEntity
  8
Layer_1
 62
7
100
AcDbSpline
 70
8
 71
3
 72
8
 73
4
 74
0
 40
0
 40
0
 40
0
 40
0
 40
1
 40
1
 40
1
 40
1
 10
3.366943
 20
67.907299
 30
0.0
 10
3.458143
 20
68.082103
 30
0.0
 10
3.673796
 20
68.150632
 30
0.0
 10
3.848665
 20
68.060377
 30
0.0
  0
SPLINE
  5
11b
100
AcDbEntity
  8
Layer_1
 62
7
100
AcDbSpline
 70
8
 71
3
 72
8
 73
4
 74
0
 40
0
 40
0
 40
0
 40
0
 40
1
 40
1
 40
1
 40
1
 10
3.848665
 20
68.060377
 30
0.0
 10
4.023533
 20
67.970122
 30
0.0
 10
4.091423
 20
67.755247
 30
0.0
 10
4.000316
 20
67.580396
 30
0.0
  0
SPLINE
  5
11c
100
AcDbEntity
  8
Layer_1
 62
7
100
AcDbSpline
 70
8
 71
3
 72
8
 73
4
 74
0
 40
0
 40
0
 40
0
 40
0
 40
1
 40
1
 40
1
 40
1
 10
4.000316
 20
67.580396
 30
0.0
 10
3.909209
 20
67.405544
 30
0.0
 10
3.693592
 20
67.336901
 30
0.0
 10
3.518675
 20
67.427063
 30
0.0
  0
SPLINE
  5
11d
100
AcDbEntity
  8
Layer_1
 62
7
100
AcDbSpline
 70
8
 71
3
 72
8
 73
4
 74
0
 40
0
 40
0
 40
0
 40
0
 40
1
 40
1
 40
1
 40
1
 10
7.773277
 20
60.580143
 30
0.0
 10
7.607624
 20
60.473918
 30
0.0
 10
7.387618
 20
60.522679
 30
0.0
 10
7.281834
 20
60.689062
 30
0.0
  0
SPLINE
  5
11e
100
AcDbEntity
  8
Layer_1
 62
7
100
AcDbSpline
 70
8
 71
3
 72
8
 73
4
 74
0
 40
0
 40
0
 40
0
 40
0
 40
1
 40
1
 40
1
 40
1
 10
7.281834
 20
60.689062
 30
0.0
 10
7.176049
 20
60.855446
 30
0.0
 10
7.224528
 20
61.076471
 30
0.0
 10
7.390126
 20
61.182784
 30
0.0
  0
SPLINE
  5
11f
100
AcDbEntity
  8
Layer_1
 62
7
100
AcDbSpline
 70
8
 71
3
 72
8
 73
4
 74
0
 40
0
 40
0
 40
0
 40
0
 40
1
 40
1
 40
1
 40
1
 10
7.390126
 20
61.182784
 30
0.0
 10
7.555723
 20
61.289097
 30
0.0
 10
7.775755
 20
61.240455
 30
0.0
 10
7.881627
 20
61.074128
 30
0.0
  0
SPLINE
  5
120
100
AcDbEntity
  8
Layer_1
 62
7
100
AcDbSpline
 70
8
 71
3
 72
8
 73
4
 74
0
 40
0
 40
0
 40
0
 40
0
 40
1
 40
1
 40
1
 40
1
 10
7.881627
 20
61.074128
 30
0.0
 10
7.987500
 20
60.907801
 30
0.0
 10
7.939138
 20
60.686749
 30
0.0
 10
7.773597
 20
60.580348
 30
0.0
  0
SPLINE
  5
121
100
AcDbEntity
  8
Layer_1
 62
7
100
AcDbSpline
 70
8
 71
3
 72
8
 73
4
 74
0
 40
0
 40
0
 40
0
 40
0
 40
1
 40
1
 40
1
 40
1
 10
15.830506
 20
60.841480
 30
0.0
 10
15.839673
 20
60.644907
 30
0.0
 10
15.687442
 20
60.478757
 30
0.0
 10
15.490458
 20
60.470336
 30
0.0
  0
SPLINE
  5
122
100
AcDbEntity
  8
Layer_1
 62
7
100
AcDbSpline
 70
8
 71
3
 72
8
 73
4
 74
0
 40
0
 40
0
 40
0
 40
0
 40
1
 40
1
 40
1
 40
1
 10
15.490458
 20
60.470336
 30
0.0
 10
15.293473
 20
60.461916
 30
0.0
 10
15.126299
 20
60.614413
 30
0.0
 10
15.117028
 20
60.810982
 30
0.0
  0
SPLINE
  5
123
100
AcDbEntity
  8
Layer_1
 62
7
100
AcDbSpline
 70
8
 71
3
 72
8
 73
4
 74
0
 40
0
 40
0
 40
0
 40
0
 40
1
 40
1
 40
1
 40
1
 10
15.117028
 20
60.810982
 30
0.0
 10
15.107757
 20
61.007549
 30
0.0
 10
15.259898
 20
61.173781
 30
0.0
 10
15.456878
 20
61.182306
 30
0.0
  0
SPLINE
  5
124
100
AcDbEntity
  8
Layer_1
 62
7
100
AcDbSpline
 70
8
 71
3
 72
8
 73
4
 74
0
 40
0
 40
0
 40
0
 40
0
 40
1
 40
1
 40
1
 40
1
 10
15.456878
 20
61.182306
 30
0.0
 10
15.653857
 20
61.190831
 30
0.0
 10
15.821113
 20
61.038422
 30
0.0
 10
15.830489
 20
60.841859
 30
0.0
  0
SPLINE
  5
125
100
AcDbEntity
  8
Layer_1
 62
7
100
AcDbSpline
 70
8
 71
3
 72
8
 73
4
 74
0
 40
0
 40
0
 40
0
 40
0
 40
1
 40
1
 40
1
 40
1
 10
19.632796
 20
67.949913
 30
0.0
 10
19.807616
 20
67.859564
 30
0.0
 10
19.875391
 20
67.644654
 30
0.0
 10
19.784191
 20
67.469850
 30
0.0
  0
SPLINE
  5
126
100
AcDbEntity
  8
Layer_1
 62
7
100
AcDbSpline
 70
8
 71
3
 72
8
 73
4
 74
0
 40
0
 40
0
 40
0
 40
0
 40
1
 40
1
 40
1
 40
1
 10
19.784191
 20
67.469850
 30
0.0
 10
19.692991
 20
67.295046
 30
0.0
 10
19.477338
 20
67.226518
 30
0.0
 10
19.302469
 20
67.316773
 30
0.0
  0
SPLINE
  5
127
100
AcDbEntity
  8
Layer_1
 62
7
100
AcDbSpline
 70
8
 71
3
 72
8
 73
4
 74
0
 40
0
 40
0
 40
0
 40
0
 40
1
 40
1
 40
1
 40
1
 10
19.302469
 20
67.316773
 30
0.0
 10
19.127601
 20
67.407028
 30
0.0
 10
19.059711
 20
67.621902
 30
0.0
 10
19.150818
 20
67.796754
 30
0.0
  0
SPLINE
  5
128
100
AcDbEntity
  8
Layer_1
 62
7
100
AcDbSpline
 70
8
 71
3
 72
8
 73
4
 74
0
 40
0
 40
0
 40
0
 40
0
 40
1
 40
1
 40
1
 40
1
 10
19.150818
 20
67.796754
 30
0.0
 10
19.241925
 20
67.971606
 30
0.0
 10
19.457542
 20
68.040248
 30
0.0
 10
19.632459
 20
67.950087
 30
0.0
  0
SPLINE
  5
129
100
AcDbEntity
  8
Layer_1
 62
7
100
AcDbSpline
 70
8
 71
3
 72
8
 73
4
 74
0
 40
0
 40
0
 40
0
 40
0
 40
1
 40
1
 40
1
 40
1
 10
15.377857
 20
74.797010
 30
0.0
 10
15.543511
 20
74.903234
 30
0.0
 10
15.763516
 20
74.854474
 30
0.0
 10
15.869301
 20
74.688090
 30
0.0
  0
SPLINE
  5
12a
100
AcDbEntity
  8
Layer_1
 62
7
100
AcDbSpline
 70
8
 71
3
 72
8
 73
4
 74
0
 40
0
 40
0
 40
0
 40
0
 40
1
 40
1
 40
1
 40
1
 10
15.869301
 20
74.688090
 30
0.0
 10
15.975085
 20
74.521707
 30
0.0
 10
15.926606
 20
74.300681
 30
0.0
 10
15.761009
 20
74.194368
 30
0.0
  0
SPLINE
  5
12b
100
AcDbEntity
  8
Layer_1
 62
7
100
AcDbSpline
 70
8
 71
3
 72
8
 73
4
 74
0
 40
0
 40
0
 40
0
 40
0
 40
1
 40
1
 40
1
 40
1
 10
15.761009
 20
74.194368
 30
0.0
 10
15.595411
 20
74.088055
 30
0.0
 10
15.375380
 20
74.136698
 30
0.0
 10
15.269507
 20
74.303025
 30
0.0
  0
SPLINE
  5
12c
100
AcDbEntity
  8
Layer_1
 62
7
100
AcDbSpline
 70
8
 71
3
 72
8
 73
4
 74
0
 40
0
 40
0
 40
0
 40
0
 40
1
 40
1
 40
1
 40
1
 10
15.269507
 20
74.303025
 30
0.0
 10
15.163635
 20
74.469352
 30
0.0
 10
15.211997
 20
74.690403
 30
0.0
 10
15.377538
 20
74.796805
 30
0.0
  0
SPLINE
  5
12d
100
AcDbEntity
  8
Layer_1
 62
7
100
AcDbSpline
 70
8
 71
3
 72
8
 73
4
 74
0
 40
0
 40
0
 40
0
 40
0
 40
1
 40
1
 40
1
 40
1
 10
29.063963
 20
69.505444
 30
0.0
 10
30.091611
 20
70.161878
 30
0.0
 10
31.456436
 20
69.860555
 30
0.0
 10
32.112680
 20
68.832356
 30
0.0
  0
SPLINE
  5
12e
100
AcDbEntity
  8
Layer_1
 62
7
100
AcDbSpline
 70
8
 71
3
 72
8
 73
4
 74
0
 40
0
 40
0
 40
0
 40
0
 40
1
 40
1
 40
1
 40
1
 10
32.112680
 20
68.832356
 30
0.0
 10
32.768924
 20
67.804155
 30
0.0
 10
32.468178
 20
66.438283
 30
0.0
 10
31.440879
 20
65.781301
 30
0.0
  0
SPLINE
  5
12f
100
AcDbEntity
  8
Layer_1
 62
7
100
AcDbSpline
 70
8
 71
3
 72
8
 73
4
 74
0
 40
0
 40
0
 40
0
 40
0
 40
1
 40
1
 40
1
 40
1
 10
31.440879
 20
65.781301
 30
0.0
 10
30.413581
 20
65.124320
 30
0.0
 10
29.048596
 20
65.424916
 30
0.0
 10
28.391805
 20
66.452765
 30
0.0
  0
SPLINE
  5
130
100
AcDbEntity
  8
Layer_1
 62
7
100
AcDbSpline
 70
8
 71
3
 72
8
 73
4
 74
0
 40
0
 40
0
 40
0
 40
0
 40
1
 40
1
 40
1
 40
1
 10
28.391805
 20
66.452765
 30
0.0
 10
27.735014
 20
67.480615
 30
0.0
 10
28.035033
 20
68.846648
 30
0.0
 10
29.061981
 20
69.504177
 30
0.0
  0
SPLINE
  5
131
100
AcDbEntity
  8
Layer_1
 62
7
100
AcDbSpline
 70
8
 71
3
 72
8
 73
4
 74
0
 40
0
 40
0
 40
0
 40
0
 40
1
 40
1
 40
1
 40
1
 10
25.291217
 20
75.414534
 30
0.0
 10
29.582479
 20
78.153741
 30
0.0
 10
35.281735
 20
76.896363
 30
0.0
 10
38.022086
 20
72.605831
 30
0.0
  0
SPLINE
  5
132
100
AcDbEntity
  8
Layer_1
 62
7
100
AcDbSpline
 70
8
 71
3
 72
8
 73
4
 74
0
 40
0
 40
0
 40
0
 40
0
 40
1
 40
1
 40
1
 40
1
 10
38.022086
 20
72.605831
 30
0.0
 10
40.762436
 20
68.315299
 30
0.0
 10
39.506575
 20
62.615709
 30
0.0
 10
35.216772
 20
59.874216
 30
0.0
  0
SPLINE
  5
133
100
AcDbEntity
  8
Layer_1
 62
7
100
AcDbSpline
 70
8
 71
3
 72
8
 73
4
 74
0
 40
0
 40
0
 40
0
 40
0
 40
1
 40
1
 40
1
 40
1
 10
35.216772
 20
59.874216
 30
0.0
 10
30.926968
 20
57.132724
 30
0.0
 10
25.227044
 20
58.387068
 30
0.0
 10
22.484410
 20
62.676141
 30
0.0
  0
SPLINE
  5
134
100
AcDbEntity
  8
Layer_1
 62
7
100
AcDbSpline
 70
8
 71
3
 72
8
 73
4
 74
0
 40
0
 40
0
 40
0
 40
0
 40
1
 40
1
 40
1
 40
1
 10
22.484410
 20
62.676141
 30
0.0
 10
19.741775
 20
66.965214
 30
0.0
 10
20.994602
 20
72.665472
 30
0.0
 10
25.282946
 20
75.409248
 30
0.0
  0
LWPOLYLINE
  5
135
100
AcDbEntity
  8
Layer_1
 62
7
100
AcDbPolyline
 90
4
 70
1
 10
18.441251
 20
72.410483
 30
0.0
 10
19.129168
 20
71.218977
 30
0.0
 10
18.510501
 20
70.861789
 30
0.0
 10
17.822584
 20
72.053296
 30
0.0
  0
SPLINE
  5
136
100
AcDbEntity
  8
Layer_1
 62
7
100
AcDbSpline
 70
8
 71
3
 72
8
 73
4
 74
0
 40
0
 40
0
 40
0
 40
0
 40
1
 40
1
 40
1
 40
1
 10
30.060352
 20
71.251694
 30
0.0
 10
30.226073
 20
71.358042
 30
0.0
 10
30.446168
 20
71.309225
 30
0.0
 10
30.551996
 20
71.142648
 30
0.0
  0
SPLINE
  5
137
100
AcDbEntity
  8
Layer_1
 62
7
100
AcDbSpline
 70
8
 71
3
 72
8
 73
4
 74
0
 40
0
 40
0
 40
0
 40
0
 40
1
 40
1
 40
1
 40
1
 10
30.551996
 20
71.142648
 30
0.0
 10
30.657823
 20
70.976072
 30
0.0
 10
30.609324
 20
70.754789
 30
0.0
 10
30.443659
 20
70.648353
 30
0.0
  0
SPLINE
  5
138
100
AcDbEntity
  8
Layer_1
 62
7
100
AcDbSpline
 70
8
 71
3
 72
8
 73
4
 74
0
 40
0
 40
0
 40
0
 40
0
 40
1
 40
1
 40
1
 40
1
 10
30.443659
 20
70.648353
 30
0.0
 10
30.277995
 20
70.541916
 30
0.0
 10
30.057873
 20
70.590615
 30
0.0
 10
29.951958
 20
70.757136
 30
0.0
  0
SPLINE
  5
139
100
AcDbEntity
  8
Layer_1
 62
7
100
AcDbSpline
 70
8
 71
3
 72
8
 73
4
 74
0
 40
0
 40
0
 40
0
 40
0
 40
1
 40
1
 40
1
 40
1
 10
29.951958
 20
70.757136
 30
0.0
 10
29.846042
 20
70.923656
 30
0.0
 10
29.894424
 20
71.144964
 30
0.0
 10
30.060032
 20
71.251489
 30
0.0
  0
SPLINE
  5
13a
100
AcDbEntity
  8
Layer_1
 62
7
100
AcDbSpline
 70
8
 71
3
 72
8
 73
4
 74
0
 40
0
 40
0
 40
0
 40
0
 40
1
 40
1
 40
1
 40
1
 10
30.060352
 20
64.637864
 30
0.0
 10
30.226073
 20
64.744211
 30
0.0
 10
30.446168
 20
64.695395
 30
0.0
 10
30.551996
 20
64.528818
 30
0.0
  0
SPLINE
  5
13b
100
AcDbEntity
  8
Layer_1
 62
7
100
AcDbSpline
 70
8
 71
3
 72
8
 73
4
 74
0
 40
0
 40
0
 40
0
 40
0
 40
1
 40
1
 40
1
 40
1
 10
30.551996
 20
64.528818
 30
0.0
 10
30.657823
 20
64.362241
 30
0.0
 10
30.609324
 20
64.140959
 30
0.0
 10
30.443659
 20
64.034522
 30
0.0
  0
SPLINE
  5
13c
100
AcDbEntity
  8
Layer_1
 62
7
100
AcDbSpline
 70
8
 71
3
 72
8
 73
4
 74
0
 40
0
 40
0
 40
0
 40
0
 40
1
 40
1
 40
1
 40
1
 10
30.443659
 20
64.034522
 30
0.0
 10
30.277995
 20
63.928086
 30
0.0
 10
30.057874
 20
63.976785
 30
0.0
 10
29.951958
 20
64.143305
 30
0.0
  0
SPLINE
  5
13d
100
AcDbEntity
  8
Layer_1
 62
7
100
AcDbSpline
 70
8
 71
3
 72
8
 73
4
 74
0
 40
0
 40
0
 40
0
 40
0
 40
1
 40
1
 40
1
 40
1
 10
29.951958
 20
64.143305
 30
0.0
 10
29.846042
 20
64.309825
 30
0.0
 10
29.894424
 20
64.531133
 30
0.0
 10
30.060032
 20
64.637659
 30
0.0
  0
LWPOLYLINE
  5
13e
100
AcDbEntity
  8
Layer_1
 62
7
100
AcDbPolyline
 90
4
 70
1
 10
29.564007
 20
75.937743
 30
0.0
 10
30.939840
 20
75.937743
 30
0.0
 10
30.939840
 20
75.223368
 30
0.0
 10
29.564007
 20
75.223368
 30
0.0
  0
LWPOLYLINE
  5
13f
100
AcDbEntity
  8
Layer_1
 62
7
100
AcDbPolyline
 90
4
 70
1
 10
22.760116
 20
71.207547
 30
0.0
 10
23.448032
 20
72.399054
 30
0.0
 10
24.066699
 20
72.041866
 30
0.0
 10
23.378783
 20
70.850360
 30
0.0
  0
LWPOLYLINE
  5
140
100
AcDbEntity
  8
Layer_1
 62
7
100
AcDbPolyline
 90
4
 70
1
 10
23.454533
 20
62.950204
 30
0.0
 10
22.766617
 20
64.141711
 30
0.0
 10
23.385283
 20
64.498898
 30
0.0
 10
24.073200
 20
63.307392
 30
0.0
  0
LWPOLYLINE
  5
141
100
AcDbEntity
  8
Layer_1
 62
7
100
AcDbPolyline
 90
4
 70
1
 10
30.953022
 20
59.422851
 30
0.0
 10
29.577189
 20
59.422851
 30
0.0
 10
29.577189
 20
60.137226
 30
0.0
 10
30.953022
 20
60.137226
 30
0.0
  0
LWPOLYLINE
  5
142
100
AcDbEntity
  8
Layer_1
 62
7
100
AcDbPolyline
 90
4
 70
1
 10
37.756929
 20
64.153033
 30
0.0
 10
37.069012
 20
62.961527
 30
0.0
 10
36.450345
 20
63.318714
 30
0.0
 10
37.138262
 20
64.510221
 30
0.0
  0
SPLINE
  5
143
100
AcDbEntity
  8
Layer_1
 62
7
100
AcDbSpline
 70
8
 71
3
 72
8
 73
4
 74
0
 40
0
 40
0
 40
0
 40
0
 40
1
 40
1
 40
1
 40
1
 10
25.941818
 20
74.535657
 30
0.0
 10
25.932652
 20
74.732229
 30
0.0
 10
26.084882
 20
74.898380
 30
0.0
 10
26.281867
 20
74.906800
 30
0.0
  0
SPLINE
  5
144
100
AcDbEntity
  8
Layer_1
 62
7
100
AcDbSpline
 70
8
 71
3
 72
8
 73
4
 74
0
 40
0
 40
0
 40
0
 40
0
 40
1
 40
1
 40
1
 40
1
 10
26.281867
 20
74.906800
 30
0.0
 10
26.478852
 20
74.915220
 30
0.0
 10
26.646026
 20
74.762723
 30
0.0
 10
26.655297
 20
74.566155
 30
0.0
  0
SPLINE
  5
145
100
AcDbEntity
  8
Layer_1
 62
7
100
AcDbSpline
 70
8
 71
3
 72
8
 73
4
 74
0
 40
0
 40
0
 40
0
 40
0
 40
1
 40
1
 40
1
 40
1
 10
26.655297
 20
74.566155
 30
0.0
 10
26.664568
 20
74.369587
 30
0.0
 10
26.512427
 20
74.203356
 30
0.0
 10
26.315447
 20
74.194831
 30
0.0
  0
SPLINE
  5
146
100
AcDbEntity
  8
Layer_1
 62
7
100
AcDbSpline
 70
8
 71
3
 72
8
 73
4
 74
0
 40
0
 40
0
 40
0
 40
0
 40
1
 40
1
 40
1
 40
1
 10
26.315447
 20
74.194831
 30
0.0
 10
26.118467
 20
74.186306
 30
0.0
 10
25.951212
 20
74.338715
 30
0.0
 10
25.941836
 20
74.535278
 30
0.0
  0
SPLINE
  5
147
100
AcDbEntity
  8
Layer_1
 62
7
100
AcDbSpline
 70
8
 71
3
 72
8
 73
4
 74
0
 40
0
 40
0
 40
0
 40
0
 40
1
 40
1
 40
1
 40
1
 10
22.139459
 20
67.427268
 30
0.0
 10
21.964639
 20
67.517616
 30
0.0
 10
21.896863
 20
67.732526
 30
0.0
 10
21.988063
 20
67.907330
 30
0.0
  0
SPLINE
  5
148
100
AcDbEntity
  8
Layer_1
 62
7
100
AcDbSpline
 70
8
 71
3
 72
8
 73
4
 74
0
 40
0
 40
0
 40
0
 40
0
 40
1
 40
1
 40
1
 40
1
 10
21.988063
 20
67.907330
 30
0.0
 10
22.079264
 20
68.082134
 30
0.0
 10
22.294917
 20
68.150662
 30
0.0
 10
22.469786
 20
68.060407
 30
0.0
  0
SPLINE
  5
149
100
AcDbEntity
  8
Layer_1
 62
7
100
AcDbSpline
 70
8
 71
3
 72
8
 73
4
 74
0
 40
0
 40
0
 40
0
 40
0
 40
1
 40
1
 40
1
 40
1
 10
22.469786
 20
68.060407
 30
0.0
 10
22.644654
 20
67.970152
 30
0.0
 10
22.712544
 20
67.755278
 30
0.0
 10
22.621437
 20
67.580426
 30
0.0
  0
SPLINE
  5
14a
100
AcDbEntity
  8
Layer_1
 62
7
100
AcDbSpline
 70
8
 71
3
 72
8
 73
4
 74
0
 40
0
 40
0
 40
0
 40
0
 40
1
 40
1
 40
1
 40
1
 10
22.621437
 20
67.580426
 30
0.0
 10
22.530330
 20
67.405574
 30
0.0
 10
22.314713
 20
67.336932
 30
0.0
 10
22.139796
 20
67.427094
 30
0.0
  0
SPLINE
  5
14b
100
AcDbEntity
  8
Layer_1
 62
7
100
AcDbSpline
 70
8
 71
3
 72
8
 73
4
 74
0
 40
0
 40
0
 40
0
 40
0
 40
1
 40
1
 40
1
 40
1
 10
26.394449
 20
60.580143
 30
0.0
 10
26.228795
 20
60.473918
 30
0.0
 10
26.008789
 20
60.522679
 30
0.0
 10
25.903005
 20
60.689062
 30
0.0
  0
SPLINE
  5
14c
100
AcDbEntity
  8
Layer_1
 62
7
100
AcDbSpline
 70
8
 71
3
 72
8
 73
4
 74
0
 40
0
 40
0
 40
0
 40
0
 40
1
 40
1
 40
1
 40
1
 10
25.903005
 20
60.689062
 30
0.0
 10
25.797220
 20
60.855446
 30
0.0
 10
25.845700
 20
61.076472
 30
0.0
 10
26.011297
 20
61.182784
 30
0.0
  0
SPLINE
  5
14d
100
AcDbEntity
  8
Layer_1
 62
7
100
AcDbSpline
 70
8
 71
3
 72
8
 73
4
 74
0
 40
0
 40
0
 40
0
 40
0
 40
1
 40
1
 40
1
 40
1
 10
26.011297
 20
61.182784
 30
0.0
 10
26.176895
 20
61.289098
 30
0.0
 10
26.396927
 20
61.240455
 30
0.0
 10
26.502799
 20
61.074128
 30
0.0
  0
SPLINE
  5
14e
100
AcDbEntity
  8
Layer_1
 62
7
100
AcDbSpline
 70
8
 71
3
 72
8
 73
4
 74
0
 40
0
 40
0
 40
0
 40
0
 40
1
 40
1
 40
1
 40
1
 10
26.502799
 20
61.074128
 30
0.0
 10
26.608672
 20
60.907801
 30
0.0
 10
26.560309
 20
60.686749
 30
0.0
 10
26.394768
 20
60.580348
 30
0.0
  0
SPLINE
  5
14f
100
AcDbEntity
  8
Layer_1
 62
7
100
AcDbSpline
 70
8
 71
3
 72
8
 73
4
 74
0
 40
0
 40
0
 40
0
 40
0
 40
1
 40
1
 40
1
 40
1
 10
34.451699
 20
60.841462
 30
0.0
 10
34.460865
 20
60.644889
 30
0.0
 10
34.308634
 20
60.478739
 30
0.0
 10
34.111649
 20
60.470320
 30
0.0
  0
SPLINE
  5
150
100
AcDbEntity
  8
Layer_1
 62
7
100
AcDbSpline
 70
8
 71
3
 72
8
 73
4
 74
0
 40
0
 40
0
 40
0
 40
0
 40
1
 40
1
 40
1
 40
1
 10
34.111649
 20
60.470320
 30
0.0
 10
33.914665
 20
60.461900
 30
0.0
 10
33.747492
 20
60.614397
 30
0.0
 10
33.738221
 20
60.810964
 30
0.0
  0
SPLINE
  5
151
100
AcDbEntity
  8
Layer_1
 62
7
100
AcDbSpline
 70
8
 71
3
 72
8
 73
4
 74
0
 40
0
 40
0
 40
0
 40
0
 40
1
 40
1
 40
1
 40
1
 10
33.738221
 20
60.810964
 30
0.0
 10
33.728950
 20
61.007532
 30
0.0
 10
33.881091
 20
61.173763
 30
0.0
 10
34.078071
 20
61.182288
 30
0.0
  0
SPLINE
  5
152
100
AcDbEntity
  8
Layer_1
 62
7
100
AcDbSpline
 70
8
 71
3
 72
8
 73
4
 74
0
 40
0
 40
0
 40
0
 40
0
 40
1
 40
1
 40
1
 40
1
 10
34.078071
 20
61.182288
 30
0.0
 10
34.275050
 20
61.190812
 30
0.0
 10
34.442304
 20
61.038404
 30
0.0
 10
34.451680
 20
60.841842
 30
0.0
  0
SPLINE
  5
153
100
AcDbEntity
  8
Layer_1
 62
7
100
AcDbSpline
 70
8
 71
3
 72
8
 73
4
 74
0
 40
0
 40
0
 40
0
 40
0
 40
1
 40
1
 40
1
 40
1
 10
38.253945
 20
67.950050
 30
0.0
 10
38.428764
 20
67.859702
 30
0.0
 10
38.496539
 20
67.644793
 30
0.0
 10
38.405340
 20
67.469990
 30
0.0
  0
SPLINE
  5
154
100
AcDbEntity
  8
Layer_1
 62
7
100
AcDbSpline
 70
8
 71
3
 72
8
 73
4
 74
0
 40
0
 40
0
 40
0
 40
0
 40
1
 40
1
 40
1
 40
1
 10
38.405340
 20
67.469990
 30
0.0
 10
38.314140
 20
67.295185
 30
0.0
 10
38.098487
 20
67.226656
 30
0.0
 10
37.923618
 20
67.316911
 30
0.0
  0
SPLINE
  5
155
100
AcDbEntity
  8
Layer_1
 62
7
100
AcDbSpline
 70
8
 71
3
 72
8
 73
4
 74
0
 40
0
 40
0
 40
0
 40
0
 40
1
 40
1
 40
1
 40
1
 10
37.923618
 20
67.316911
 30
0.0
 10
37.748748
 20
67.407166
 30
0.0
 10
37.680857
 20
67.622041
 30
0.0
 10
37.771965
 20
67.796894
 30
0.0
  0
SPLINE
  5
156
100
AcDbEntity
  8
Layer_1
 62
7
100
AcDbSpline
 70
8
 71
3
 72
8
 73
4
 74
0
 40
0
 40
0
 40
0
 40
0
 40
1
 40
1
 40
1
 40
1
 10
37.771965
 20
67.796894
 30
0.0
 10
37.863073
 20
67.971746
 30
0.0
 10
38.078691
 20
68.040389
 30
0.0
 10
38.253609
 20
67.950226
 30
0.0
  0
SPLINE
  5
157
100
AcDbEntity
  8
Layer_1
 62
7
100
AcDbSpline
 70
8
 71
3
 72
8
 73
4
 74
0
 40
0
 40
0
 40
0
 40
0
 40
1
 40
1
 40
1
 40
1
 10
33.999011
 20
74.797010
 30
0.0
 10
34.164665
 20
74.903235
 30
0.0
 10
34.384672
 20
74.854474
 30
0.0
 10
34.490456
 20
74.688090
 30
0.0
  0
SPLINE
  5
158
100
AcDbEntity
  8
Layer_1
 62
7
100
AcDbSpline
 70
8
 71
3
 72
8
 73
4
 74
0
 40
0
 40
0
 40
0
 40
0
 40
1
 40
1
 40
1
 40
1
 10
34.490456
 20
74.688090
 30
0.0
 10
34.596241
 20
74.521707
 30
0.0
 10
34.547762
 20
74.300681
 30
0.0
 10
34.382165
 20
74.194368
 30
0.0
  0
SPLINE
  5
159
100
AcDbEntity
  8
Layer_1
 62
7
100
AcDbSpline
 70
8
 71
3
 72
8
 73
4
 74
0
 40
0
 40
0
 40
0
 40
0
 40
1
 40
1
 40
1
 40
1
 10
34.382165
 20
74.194368
 30
0.0
 10
34.216567
 20
74.088054
 30
0.0
 10
33.996534
 20
74.136697
 30
0.0
 10
33.890662
 20
74.303025
 30
0.0
  0
SPLINE
  5
15a
100
AcDbEntity
  8
Layer_1
 62
7
100
AcDbSpline
 70
8
 71
3
 72
8
 73
4
 74
0
 40
0
 40
0
 40
0
 40
0
 40
1
 40
1
 40
1
 40
1
 10
33.890662
 20
74.303025
 30
0.0
 10
33.784789
 20
74.469352
 30
0.0
 10
33.833152
 20
74.690403
 30
0.0
 10
33.998694
 20
74.796805
 30
0.0
  0
SPLINE
  5
15b
100
AcDbEntity
  8
Layer_1
 62
7
100
AcDbSpline
 70
8
 71
3
 72
8
 73
4
 74
0
 40
0
 40
0
 40
0
 40
0
 40
1
 40
1
 40
1
 40
1
 10
10.442794
 20
50.884283
 30
0.0
 10
11.470442
 20
51.540718
 30
0.0
 10
12.835268
 20
51.239394
 30
0.0
 10
13.491512
 20
50.211194
 30
0.0
  0
SPLINE
  5
15c
100
AcDbEntity
  8
Layer_1
 62
7
100
AcDbSpline
 70
8
 71
3
 72
8
 73
4
 74
0
 40
0
 40
0
 40
0
 40
0
 40
1
 40
1
 40
1
 40
1
 10
13.491512
 20
50.211194
 30
0.0
 10
14.147755
 20
49.182994
 30
0.0
 10
13.847009
 20
47.817122
 30
0.0
 10
12.819711
 20
47.160140
 30
0.0
  0
SPLINE
  5
15d
100
AcDbEntity
  8
Layer_1
 62
7
100
AcDbSpline
 70
8
 71
3
 72
8
 73
4
 74
0
 40
0
 40
0
 40
0
 40
0
 40
1
 40
1
 40
1
 40
1
 10
12.819711
 20
47.160140
 30
0.0
 10
11.792412
 20
46.503158
 30
0.0
 10
10.427426
 20
46.803755
 30
0.0
 10
9.770635
 20
47.831605
 30
0.0
  0
SPLINE
  5
15e
100
AcDbEntity
  8
Layer_1
 62
7
100
AcDbSpline
 70
8
 71
3
 72
8
 73
4
 74
0
 40
0
 40
0
 40
0
 40
0
 40
1
 40
1
 40
1
 40
1
 10
9.770635
 20
47.831605
 30
0.0
 10
9.113845
 20
48.859455
 30
0.0
 10
9.413865
 20
50.225487
 30
0.0
 10
10.440813
 20
50.883016
 30
0.0
  0
SPLINE
  5
15f
100
AcDbEntity
  8
Layer_1
 62
7
100
AcDbSpline
 70
8
 71
3
 72
8
 73
4
 74
0
 40
0
 40
0
 40
0
 40
0
 40
1
 40
1
 40
1
 40
1
 10
6.670046
 20
56.793362
 30
0.0
 10
10.961308
 20
59.532570
 30
0.0
 10
16.660564
 20
58.275192
 30
0.0
 10
19.400915
 20
53.984660
 30
0.0
  0
SPLINE
  5
160
100
AcDbEntity
  8
Layer_1
 62
7
100
AcDbSpline
 70
8
 71
3
 72
8
 73
4
 74
0
 40
0
 40
0
 40
0
 40
0
 40
1
 40
1
 40
1
 40
1
 10
19.400915
 20
53.984660
 30
0.0
 10
22.141265
 20
49.694127
 30
0.0
 10
20.885404
 20
43.994537
 30
0.0
 10
16.595601
 20
41.253045
 30
0.0
  0
SPLINE
  5
161
100
AcDbEntity
  8
Layer_1
 62
7
100
AcDbSpline
 70
8
 71
3
 72
8
 73
4
 74
0
 40
0
 40
0
 40
0
 40
0
 40
1
 40
1
 40
1
 40
1
 10
16.595601
 20
41.253045
 30
0.0
 10
12.305797
 20
38.511553
 30
0.0
 10
6.605873
 20
39.765896
 30
0.0
 10
3.863238
 20
44.054969
 30
0.0
  0
SPLINE
  5
162
100
AcDbEntity
  8
Layer_1
 62
7
100
AcDbSpline
 70
8
 71
3
 72
8
 73
4
 74
0
 40
0
 40
0
 40
0
 40
0
 40
1
 40
1
 40
1
 40
1
 10
3.863238
 20
44.054969
 30
0.0
 10
1.120604
 20
48.344042
 30
0.0
 10
2.373430
 20
54.044301
 30
0.0
 10
6.661774
 20
56.788076
 30
0.0
  0
SPLINE
  5
163
100
AcDbEntity
  8
Layer_1
 62
7
100
AcDbSpline
 70
8
 71
3
 72
8
 73
4
 74
0
 40
0
 40
0
 40
0
 40
0
 40
1
 40
1
 40
1
 40
1
 10
11.439183
 20
52.630523
 30
0.0
 10
11.604904
 20
52.736871
 30
0.0
 10
11.825000
 20
52.688054
 30
0.0
 10
11.930827
 20
52.521477
 30
0.0
  0
SPLINE
  5
164
100
AcDbEntity
  8
Layer_1
 62
7
100
AcDbSpline
 70
8
 71
3
 72
8
 73
4
 74
0
 40
0
 40
0
 40
0
 40
0
 40
1
 40
1
 40
1
 40
1
 10
11.930827
 20
52.521477
 30
0.0
 10
12.036654
 20
52.354900
 30
0.0
 10
11.988155
 20
52.133619
 30
0.0
 10
11.822491
 20
52.027182
 30
0.0
  0
SPLINE
  5
165
100
AcDbEntity
  8
Layer_1
 62
7
100
AcDbSpline
 70
8
 71
3
 72
8
 73
4
 74
0
 40
0
 40
0
 40
0
 40
0
 40
1
 40
1
 40
1
 40
1
 10
11.822491
 20
52.027182
 30
0.0
 10
11.656826
 20
51.920746
 30
0.0
 10
11.436705
 20
51.969444
 30
0.0
 10
11.330789
 20
52.135964
 30
0.0
  0
SPLINE
  5
166
100
AcDbEntity
  8
Layer_1
 62
7
100
AcDbSpline
 70
8
 71
3
 72
8
 73
4
 74
0
 40
0
 40
0
 40
0
 40
0
 40
1
 40
1
 40
1
 40
1
 10
11.330789
 20
52.135964
 30
0.0
 10
11.224873
 20
52.302484
 30
0.0
 10
11.273255
 20
52.523793
 30
0.0
 10
11.438864
 20
52.630318
 30
0.0
  0
SPLINE
  5
167
100
AcDbEntity
  8
Layer_1
 62
7
100
AcDbSpline
 70
8
 71
3
 72
8
 73
4
 74
0
 40
0
 40
0
 40
0
 40
0
 40
1
 40
1
 40
1
 40
1
 10
11.439183
 20
46.016712
 30
0.0
 10
11.604905
 20
46.123059
 30
0.0
 10
11.825000
 20
46.074241
 30
0.0
 10
11.930827
 20
45.907664
 30
0.0
  0
SPLINE
  5
168
100
AcDbEntity
  8
Layer_1
 62
7
100
AcDbSpline
 70
8
 71
3
 72
8
 73
4
 74
0
 40
0
 40
0
 40
0
 40
0
 40
1
 40
1
 40
1
 40
1
 10
11.930827
 20
45.907664
 30
0.0
 10
12.036654
 20
45.741087
 30
0.0
 10
11.988155
 20
45.519805
 30
0.0
 10
11.822491
 20
45.413369
 30
0.0
  0
SPLINE
  5
169
100
AcDbEntity
  8
Layer_1
 62
7
100
AcDbSpline
 70
8
 71
3
 72
8
 73
4
 74
0
 40
0
 40
0
 40
0
 40
0
 40
1
 40
1
 40
1
 40
1
 10
11.822491
 20
45.413369
 30
0.0
 10
11.656826
 20
45.306933
 30
0.0
 10
11.436705
 20
45.355632
 30
0.0
 10
11.330789
 20
45.522153
 30
0.0
  0
SPLINE
  5
16a
100
AcDbEntity
  8
Layer_1
 62
7
100
AcDbSpline
 70
8
 71
3
 72
8
 73
4
 74
0
 40
0
 40
0
 40
0
 40
0
 40
1
 40
1
 40
1
 40
1
 10
11.330789
 20
45.522153
 30
0.0
 10
11.224874
 20
45.688673
 30
0.0
 10
11.273256
 20
45.909980
 30
0.0
 10
11.438864
 20
46.016505
 30
0.0
  0
SPLINE
  5
16b
100
AcDbEntity
  8
Layer_1
 62
7
100
AcDbSpline
 70
8
 71
3
 72
8
 73
4
 74
0
 40
0
 40
0
 40
0
 40
0
 40
1
 40
1
 40
1
 40
1
 10
7.320630
 20
55.914535
 30
0.0
 10
7.311464
 20
56.111107
 30
0.0
 10
7.463694
 20
56.277258
 30
0.0
 10
7.660679
 20
56.285678
 30
0.0
  0
SPLINE
  5
16c
100
AcDbEntity
  8
Layer_1
 62
7
100
AcDbSpline
 70
8
 71
3
 72
8
 73
4
 74
0
 40
0
 40
0
 40
0
 40
0
 40
1
 40
1
 40
1
 40
1
 10
7.660679
 20
56.285678
 30
0.0
 10
7.857663
 20
56.294098
 30
0.0
 10
8.024838
 20
56.141601
 30
0.0
 10
8.034109
 20
55.945033
 30
0.0
  0
SPLINE
  5
16d
100
AcDbEntity
  8
Layer_1
 62
7
100
AcDbSpline
 70
8
 71
3
 72
8
 73
4
 74
0
 40
0
 40
0
 40
0
 40
0
 40
1
 40
1
 40
1
 40
1
 10
8.034109
 20
55.945033
 30
0.0
 10
8.043380
 20
55.748465
 30
0.0
 10
7.891238
 20
55.582234
 30
0.0
 10
7.694259
 20
55.573709
 30
0.0
  0
SPLINE
  5
16e
100
AcDbEntity
  8
Layer_1
 62
7
100
AcDbSpline
 70
8
 71
3
 72
8
 73
4
 74
0
 40
0
 40
0
 40
0
 40
0
 40
1
 40
1
 40
1
 40
1
 10
7.694259
 20
55.573709
 30
0.0
 10
7.497279
 20
55.565184
 30
0.0
 10
7.330024
 20
55.717593
 30
0.0
 10
7.320648
 20
55.914156
 30
0.0
  0
SPLINE
  5
16f
100
AcDbEntity
  8
Layer_1
 62
7
100
AcDbSpline
 70
8
 71
3
 72
8
 73
4
 74
0
 40
0
 40
0
 40
0
 40
0
 40
1
 40
1
 40
1
 40
1
 10
3.518362
 20
48.806023
 30
0.0
 10
3.343542
 20
48.896371
 30
0.0
 10
3.275766
 20
49.111282
 30
0.0
 10
3.366967
 20
49.286087
 30
0.0
  0
SPLINE
  5
170
100
AcDbEntity
  8
Layer_1
 62
7
100
AcDbSpline
 70
8
 71
3
 72
8
 73
4
 74
0
 40
0
 40
0
 40
0
 40
0
 40
1
 40
1
 40
1
 40
1
 10
3.366967
 20
49.286087
 30
0.0
 10
3.458166
 20
49.460890
 30
0.0
 10
3.673820
 20
49.529419
 30
0.0
 10
3.848688
 20
49.439165
 30
0.0
  0
SPLINE
  5
171
100
AcDbEntity
  8
Layer_1
 62
7
100
AcDbSpline
 70
8
 71
3
 72
8
 73
4
 74
0
 40
0
 40
0
 40
0
 40
0
 40
1
 40
1
 40
1
 40
1
 10
3.848688
 20
49.439165
 30
0.0
 10
4.023558
 20
49.348910
 30
0.0
 10
4.091448
 20
49.134035
 30
0.0
 10
4.000340
 20
48.959182
 30
0.0
  0
SPLINE
  5
172
100
AcDbEntity
  8
Layer_1
 62
7
100
AcDbSpline
 70
8
 71
3
 72
8
 73
4
 74
0
 40
0
 40
0
 40
0
 40
0
 40
1
 40
1
 40
1
 40
1
 10
4.000340
 20
48.959182
 30
0.0
 10
3.909233
 20
48.784330
 30
0.0
 10
3.693615
 20
48.715688
 30
0.0
 10
3.518698
 20
48.805851
 30
0.0
  0
SPLINE
  5
173
100
AcDbEntity
  8
Layer_1
 62
7
100
AcDbSpline
 70
8
 71
3
 72
8
 73
4
 74
0
 40
0
 40
0
 40
0
 40
0
 40
1
 40
1
 40
1
 40
1
 10
7.773277
 20
41.959009
 30
0.0
 10
7.607624
 20
41.852784
 30
0.0
 10
7.387618
 20
41.901544
 30
0.0
 10
7.281834
 20
42.067927
 30
0.0
  0
SPLINE
  5
174
100
AcDbEntity
  8
Layer_1
 62
7
100
AcDbSpline
 70
8
 71
3
 72
8
 73
4
 74
0
 40
0
 40
0
 40
0
 40
0
 40
1
 40
1
 40
1
 40
1
 10
7.281834
 20
42.067927
 30
0.0
 10
7.176049
 20
42.234311
 30
0.0
 10
7.224528
 20
42.455337
 30
0.0
 10
7.390126
 20
42.561650
 30
0.0
  0
SPLINE
  5
175
100
AcDbEntity
  8
Layer_1
 62
7
100
AcDbSpline
 70
8
 71
3
 72
8
 73
4
 74
0
 40
0
 40
0
 40
0
 40
0
 40
1
 40
1
 40
1
 40
1
 10
7.390126
 20
42.561650
 30
0.0
 10
7.555723
 20
42.667963
 30
0.0
 10
7.775755
 20
42.619321
 30
0.0
 10
7.881627
 20
42.452994
 30
0.0
  0
SPLINE
  5
176
100
AcDbEntity
  8
Layer_1
 62
7
100
AcDbSpline
 70
8
 71
3
 72
8
 73
4
 74
0
 40
0
 40
0
 40
0
 40
0
 40
1
 40
1
 40
1
 40
1
 10
7.881627
 20
42.452994
 30
0.0
 10
7.987501
 20
42.286667
 30
0.0
 10
7.939138
 20
42.065614
 30
0.0
 10
7.773597
 20
41.959212
 30
0.0
  0
SPLINE
  5
177
100
AcDbEntity
  8
Layer_1
 62
7
100
AcDbSpline
 70
8
 71
3
 72
8
 73
4
 74
0
 40
0
 40
0
 40
0
 40
0
 40
1
 40
1
 40
1
 40
1
 10
15.830388
 20
42.220357
 30
0.0
 10
15.839554
 20
42.023784
 30
0.0
 10
15.687322
 20
41.857634
 30
0.0
 10
15.490338
 20
41.849215
 30
0.0
  0
SPLINE
  5
178
100
AcDbEntity
  8
Layer_1
 62
7
100
AcDbSpline
 70
8
 71
3
 72
8
 73
4
 74
0
 40
0
 40
0
 40
0
 40
0
 40
1
 40
1
 40
1
 40
1
 10
15.490338
 20
41.849215
 30
0.0
 10
15.293354
 20
41.840795
 30
0.0
 10
15.126181
 20
41.993292
 30
0.0
 10
15.116909
 20
42.189859
 30
0.0
  0
SPLINE
  5
179
100
AcDbEntity
  8
Layer_1
 62
7
100
AcDbSpline
 70
8
 71
3
 72
8
 73
4
 74
0
 40
0
 40
0
 40
0
 40
0
 40
1
 40
1
 40
1
 40
1
 10
15.116909
 20
42.189859
 30
0.0
 10
15.107638
 20
42.386427
 30
0.0
 10
15.259780
 20
42.552658
 30
0.0
 10
15.456759
 20
42.561183
 30
0.0
  0
SPLINE
  5
17a
100
AcDbEntity
  8
Layer_1
 62
7
100
AcDbSpline
 70
8
 71
3
 72
8
 73
4
 74
0
 40
0
 40
0
 40
0
 40
0
 40
1
 40
1
 40
1
 40
1
 10
15.456759
 20
42.561183
 30
0.0
 10
15.653738
 20
42.569707
 30
0.0
 10
15.820992
 20
42.417299
 30
0.0
 10
15.830369
 20
42.220737
 30
0.0
  0
SPLINE
  5
17b
100
AcDbEntity
  8
Layer_1
 62
7
100
AcDbSpline
 70
8
 71
3
 72
8
 73
4
 74
0
 40
0
 40
0
 40
0
 40
0
 40
1
 40
1
 40
1
 40
1
 10
19.632833
 20
49.328677
 30
0.0
 10
19.807651
 20
49.238328
 30
0.0
 10
19.875426
 20
49.023419
 30
0.0
 10
19.784227
 20
48.848616
 30
0.0
  0
SPLINE
  5
17c
100
AcDbEntity
  8
Layer_1
 62
7
100
AcDbSpline
 70
8
 71
3
 72
8
 73
4
 74
0
 40
0
 40
0
 40
0
 40
0
 40
1
 40
1
 40
1
 40
1
 10
19.784227
 20
48.848616
 30
0.0
 10
19.693027
 20
48.673812
 30
0.0
 10
19.477374
 20
48.605283
 30
0.0
 10
19.302505
 20
48.695537
 30
0.0
  0
SPLINE
  5
17d
100
AcDbEntity
  8
Layer_1
 62
7
100
AcDbSpline
 70
8
 71
3
 72
8
 73
4
 74
0
 40
0
 40
0
 40
0
 40
0
 40
1
 40
1
 40
1
 40
1
 10
19.302505
 20
48.695537
 30
0.0
 10
19.127636
 20
48.785792
 30
0.0
 10
19.059745
 20
49.000667
 30
0.0
 10
19.150853
 20
49.175520
 30
0.0
  0
SPLINE
  5
17e
100
AcDbEntity
  8
Layer_1
 62
7
100
AcDbSpline
 70
8
 71
3
 72
8
 73
4
 74
0
 40
0
 40
0
 40
0
 40
0
 40
1
 40
1
 40
1
 40
1
 10
19.150853
 20
49.175520
 30
0.0
 10
19.241960
 20
49.350372
 30
0.0
 10
19.457578
 20
49.419014
 30
0.0
 10
19.632495
 20
49.328852
 30
0.0
  0
SPLINE
  5
17f
100
AcDbEntity
  8
Layer_1
 62
7
100
AcDbSpline
 70
8
 71
3
 72
8
 73
4
 74
0
 40
0
 40
0
 40
0
 40
0
 40
1
 40
1
 40
1
 40
1
 10
15.377857
 20
56.175838
 30
0.0
 10
15.543511
 20
56.282063
 30
0.0
 10
15.763516
 20
56.233302
 30
0.0
 10
15.869301
 20
56.066919
 30
0.0
  0
SPLINE
  5
180
100
AcDbEntity
  8
Layer_1
 62
7
100
AcDbSpline
 70
8
 71
3
 72
8
 73
4
 74
0
 40
0
 40
0
 40
0
 40
0
 40
1
 40
1
 40
1
 40
1
 10
15.869301
 20
56.066919
 30
0.0
 10
15.975085
 20
55.900535
 30
0.0
 10
15.926606
 20
55.679510
 30
0.0
 10
15.761009
 20
55.573197
 30
0.0
  0
SPLINE
  5
181
100
AcDbEntity
  8
Layer_1
 62
7
100
AcDbSpline
 70
8
 71
3
 72
8
 73
4
 74
0
 40
0
 40
0
 40
0
 40
0
 40
1
 40
1
 40
1
 40
1
 10
15.761009
 20
55.573197
 30
0.0
 10
15.595411
 20
55.466884
 30
0.0
 10
15.375380
 20
55.515526
 30
0.0
 10
15.269507
 20
55.681853
 30
0.0
  0
SPLINE
  5
182
100
AcDbEntity
  8
Layer_1
 62
7
100
AcDbSpline
 70
8
 71
3
 72
8
 73
4
 74
0
 40
0
 40
0
 40
0
 40
0
 40
1
 40
1
 40
1
 40
1
 10
15.269507
 20
55.681853
 30
0.0
 10
15.163634
 20
55.848180
 30
0.0
 10
15.211997
 20
56.069232
 30
0.0
 10
15.377538
 20
56.175633
 30
0.0
  0
SPLINE
  5
183
100
AcDbEntity
  8
Layer_1
 62
7
100
AcDbSpline
 70
8
 71
3
 72
8
 73
4
 74
0
 40
0
 40
0
 40
0
 40
0
 40
1
 40
1
 40
1
 40
1
 10
29.063963
 20
50.884283
 30
0.0
 10
30.091611
 20
51.540717
 30
0.0
 10
31.456437
 20
51.239393
 30
0.0
 10
32.112680
 20
50.211194
 30
0.0
  0
SPLINE
  5
184
100
AcDbEntity
  8
Layer_1
 62
7
100
AcDbSpline
 70
8
 71
3
 72
8
 73
4
 74
0
 40
0
 40
0
 40
0
 40
0
 40
1
 40
1
 40
1
 40
1
 10
32.112680
 20
50.211194
 30
0.0
 10
32.768923
 20
49.182994
 30
0.0
 10
32.468177
 20
47.817122
 30
0.0
 10
31.440879
 20
47.160140
 30
0.0
  0
SPLINE
  5
185
100
AcDbEntity
  8
Layer_1
 62
7
100
AcDbSpline
 70
8
 71
3
 72
8
 73
4
 74
0
 40
0
 40
0
 40
0
 40
0
 40
1
 40
1
 40
1
 40
1
 10
31.440879
 20
47.160140
 30
0.0
 10
30.413581
 20
46.503159
 30
0.0
 10
29.048596
 20
46.803755
 30
0.0
 10
28.391805
 20
47.831605
 30
0.0
  0
SPLINE
  5
186
100
AcDbEntity
  8
Layer_1
 62
7
100
AcDbSpline
 70
8
 71
3
 72
8
 73
4
 74
0
 40
0
 40
0
 40
0
 40
0
 40
1
 40
1
 40
1
 40
1
 10
28.391805
 20
47.831605
 30
0.0
 10
27.735015
 20
48.859455
 30
0.0
 10
28.035034
 20
50.225486
 30
0.0
 10
29.061981
 20
50.883016
 30
0.0
  0
SPLINE
  5
187
100
AcDbEntity
  8
Layer_1
 62
7
100
AcDbSpline
 70
8
 71
3
 72
8
 73
4
 74
0
 40
0
 40
0
 40
0
 40
0
 40
1
 40
1
 40
1
 40
1
 10
25.291217
 20
56.793362
 30
0.0
 10
29.582479
 20
59.532570
 30
0.0
 10
35.281735
 20
58.275192
 30
0.0
 10
38.022086
 20
53.984660
 30
0.0
  0
SPLINE
  5
188
100
AcDbEntity
  8
Layer_1
 62
7
100
AcDbSpline
 70
8
 71
3
 72
8
 73
4
 74
0
 40
0
 40
0
 40
0
 40
0
 40
1
 40
1
 40
1
 40
1
 10
38.022086
 20
53.984660
 30
0.0
 10
40.762436
 20
49.694127
 30
0.0
 10
39.506575
 20
43.994537
 30
0.0
 10
35.216772
 20
41.253045
 30
0.0
  0
SPLINE
  5
189
100
AcDbEntity
  8
Layer_1
 62
7
100
AcDbSpline
 70
8
 71
3
 72
8
 73
4
 74
0
 40
0
 40
0
 40
0
 40
0
 40
1
 40
1
 40
1
 40
1
 10
35.216772
 20
41.253045
 30
0.0
 10
30.926969
 20
38.511553
 30
0.0
 10
25.227044
 20
39.765896
 30
0.0
 10
22.484410
 20
44.054969
 30
0.0
  0
SPLINE
  5
18a
100
AcDbEntity
  8
Layer_1
 62
7
100
AcDbSpline
 70
8
 71
3
 72
8
 73
4
 74
0
 40
0
 40
0
 40
0
 40
0
 40
1
 40
1
 40
1
 40
1
 10
22.484410
 20
44.054969
 30
0.0
 10
19.741775
 20
48.344042
 30
0.0
 10
20.994602
 20
54.044301
 30
0.0
 10
25.282946
 20
56.788076
 30
0.0
  0
SPLINE
  5
18b
100
AcDbEntity
  8
Layer_1
 62
7
100
AcDbSpline
 70
8
 71
3
 72
8
 73
4
 74
0
 40
0
 40
0
 40
0
 40
0
 40
1
 40
1
 40
1
 40
1
 10
30.060352
 20
52.630523
 30
0.0
 10
30.226073
 20
52.736870
 30
0.0
 10
30.446168
 20
52.688054
 30
0.0
 10
30.551996
 20
52.521477
 30
0.0
  0
SPLINE
  5
18c
100
AcDbEntity
  8
Layer_1
 62
7
100
AcDbSpline
 70
8
 71
3
 72
8
 73
4
 74
0
 40
0
 40
0
 40
0
 40
0
 40
1
 40
1
 40
1
 40
1
 10
30.551996
 20
52.521477
 30
0.0
 10
30.657823
 20
52.354900
 30
0.0
 10
30.609324
 20
52.133619
 30
0.0
 10
30.443659
 20
52.027182
 30
0.0
  0
SPLINE
  5
18d
100
AcDbEntity
  8
Layer_1
 62
7
100
AcDbSpline
 70
8
 71
3
 72
8
 73
4
 74
0
 40
0
 40
0
 40
0
 40
0
 40
1
 40
1
 40
1
 40
1
 10
30.443659
 20
52.027182
 30
0.0
 10
30.277995
 20
51.920746
 30
0.0
 10
30.057874
 20
51.969444
 30
0.0
 10
29.951958
 20
52.135964
 30
0.0
  0
SPLINE
  5
18e
100
AcDbEntity
  8
Layer_1
 62
7
100
AcDbSpline
 70
8
 71
3
 72
8
 73
4
 74
0
 40
0
 40
0
 40
0
 40
0
 40
1
 40
1
 40
1
 40
1
 10
29.951958
 20
52.135964
 30
0.0
 10
29.846042
 20
52.302484
 30
0.0
 10
29.894424
 20
52.523793
 30
0.0
 10
30.060032
 20
52.630318
 30
0.0
  0
SPLINE
  5
18f
100
AcDbEntity
  8
Layer_1
 62
7
100
AcDbSpline
 70
8
 71
3
 72
8
 73
4
 74
0
 40
0
 40
0
 40
0
 40
0
 40
1
 40
1
 40
1
 40
1
 10
30.060352
 20
46.016712
 30
0.0
 10
30.226074
 20
46.123059
 30
0.0
 10
30.446169
 20
46.074241
 30
0.0
 10
30.551996
 20
45.907664
 30
0.0
  0
SPLINE
  5
190
100
AcDbEntity
  8
Layer_1
 62
7
100
AcDbSpline
 70
8
 71
3
 72
8
 73
4
 74
0
 40
0
 40
0
 40
0
 40
0
 40
1
 40
1
 40
1
 40
1
 10
30.551996
 20
45.907664
 30
0.0
 10
30.657823
 20
45.741087
 30
0.0
 10
30.609324
 20
45.519805
 30
0.0
 10
30.443659
 20
45.413369
 30
0.0
  0
SPLINE
  5
191
100
AcDbEntity
  8
Layer_1
 62
7
100
AcDbSpline
 70
8
 71
3
 72
8
 73
4
 74
0
 40
0
 40
0
 40
0
 40
0
 40
1
 40
1
 40
1
 40
1
 10
30.443659
 20
45.413369
 30
0.0
 10
30.277995
 20
45.306933
 30
0.0
 10
30.057873
 20
45.355632
 30
0.0
 10
29.951958
 20
45.522153
 30
0.0
  0
SPLINE
  5
192
100
AcDbEntity
  8
Layer_1
 62
7
100
AcDbSpline
 70
8
 71
3
 72
8
 73
4
 74
0
 40
0
 40
0
 40
0
 40
0
 40
1
 40
1
 40
1
 40
1
 10
29.951958
 20
45.522153
 30
0.0
 10
29.846043
 20
45.688672
 30
0.0
 10
29.894424
 20
45.909980
 30
0.0
 10
30.060032
 20
46.016505
 30
0.0
  0
SPLINE
  5
193
100
AcDbEntity
  8
Layer_1
 62
7
100
AcDbSpline
 70
8
 71
3
 72
8
 73
4
 74
0
 40
0
 40
0
 40
0
 40
0
 40
1
 40
1
 40
1
 40
1
 10
25.941725
 20
55.914567
 30
0.0
 10
25.932558
 20
56.111140
 30
0.0
 10
26.084788
 20
56.277290
 30
0.0
 10
26.281773
 20
56.285711
 30
0.0
  0
SPLINE
  5
194
100
AcDbEntity
  8
Layer_1
 62
7
100
AcDbSpline
 70
8
 71
3
 72
8
 73
4
 74
0
 40
0
 40
0
 40
0
 40
0
 40
1
 40
1
 40
1
 40
1
 10
26.281773
 20
56.285711
 30
0.0
 10
26.478758
 20
56.294132
 30
0.0
 10
26.645932
 20
56.141634
 30
0.0
 10
26.655203
 20
55.945065
 30
0.0
  0
SPLINE
  5
195
100
AcDbEntity
  8
Layer_1
 62
7
100
AcDbSpline
 70
8
 71
3
 72
8
 73
4
 74
0
 40
0
 40
0
 40
0
 40
0
 40
1
 40
1
 40
1
 40
1
 10
26.655203
 20
55.945065
 30
0.0
 10
26.664474
 20
55.748498
 30
0.0
 10
26.512333
 20
55.582266
 30
0.0
 10
26.315353
 20
55.573741
 30
0.0
  0
SPLINE
  5
196
100
AcDbEntity
  8
Layer_1
 62
7
100
AcDbSpline
 70
8
 71
3
 72
8
 73
4
 74
0
 40
0
 40
0
 40
0
 40
0
 40
1
 40
1
 40
1
 40
1
 10
26.315353
 20
55.573741
 30
0.0
 10
26.118374
 20
55.565217
 30
0.0
 10
25.951120
 20
55.717625
 30
0.0
 10
25.941744
 20
55.914187
 30
0.0
  0
SPLINE
  5
197
100
AcDbEntity
  8
Layer_1
 62
7
100
AcDbSpline
 70
8
 71
3
 72
8
 73
4
 74
0
 40
0
 40
0
 40
0
 40
0
 40
1
 40
1
 40
1
 40
1
 10
22.139485
 20
48.806049
 30
0.0
 10
21.964667
 20
48.896397
 30
0.0
 10
21.896892
 20
49.111307
 30
0.0
 10
21.988091
 20
49.286110
 30
0.0
  0
SPLINE
  5
198
100
AcDbEntity
  8
Layer_1
 62
7
100
AcDbSpline
 70
8
 71
3
 72
8
 73
4
 74
0
 40
0
 40
0
 40
0
 40
0
 40
1
 40
1
 40
1
 40
1
 10
21.988091
 20
49.286110
 30
0.0
 10
22.079291
 20
49.460914
 30
0.0
 10
22.294944
 20
49.529443
 30
0.0
 10
22.469813
 20
49.439188
 30
0.0
  0
SPLINE
  5
199
100
AcDbEntity
  8
Layer_1
 62
7
100
AcDbSpline
 70
8
 71
3
 72
8
 73
4
 74
0
 40
0
 40
0
 40
0
 40
0
 40
1
 40
1
 40
1
 40
1
 10
22.469813
 20
49.439188
 30
0.0
 10
22.644680
 20
49.348933
 30
0.0
 10
22.712570
 20
49.134059
 30
0.0
 10
22.621464
 20
48.959208
 30
0.0
  0
SPLINE
  5
19a
100
AcDbEntity
  8
Layer_1
 62
7
100
AcDbSpline
 70
8
 71
3
 72
8
 73
4
 74
0
 40
0
 40
0
 40
0
 40
0
 40
1
 40
1
 40
1
 40
1
 10
22.621464
 20
48.959208
 30
0.0
 10
22.530357
 20
48.784356
 30
0.0
 10
22.314740
 20
48.715713
 30
0.0
 10
22.139823
 20
48.805874
 30
0.0
  0
SPLINE
  5
19b
100
AcDbEntity
  8
Layer_1
 62
7
100
AcDbSpline
 70
8
 71
3
 72
8
 73
4
 74
0
 40
0
 40
0
 40
0
 40
0
 40
1
 40
1
 40
1
 40
1
 10
26.394449
 20
41.959009
 30
0.0
 10
26.228795
 20
41.852784
 30
0.0
 10
26.008790
 20
41.901544
 30
0.0
 10
25.903005
 20
42.067927
 30
0.0
  0
SPLINE
  5
19c
100
AcDbEntity
  8
Layer_1
 62
7
100
AcDbSpline
 70
8
 71
3
 72
8
 73
4
 74
0
 40
0
 40
0
 40
0
 40
0
 40
1
 40
1
 40
1
 40
1
 10
25.903005
 20
42.067927
 30
0.0
 10
25.797220
 20
42.234311
 30
0.0
 10
25.845699
 20
42.455337
 30
0.0
 10
26.011297
 20
42.561650
 30
0.0
  0
SPLINE
  5
19d
100
AcDbEntity
  8
Layer_1
 62
7
100
AcDbSpline
 70
8
 71
3
 72
8
 73
4
 74
0
 40
0
 40
0
 40
0
 40
0
 40
1
 40
1
 40
1
 40
1
 10
26.011297
 20
42.561650
 30
0.0
 10
26.176895
 20
42.667963
 30
0.0
 10
26.396927
 20
42.619321
 30
0.0
 10
26.502799
 20
42.452994
 30
0.0
  0
SPLINE
  5
19e
100
AcDbEntity
  8
Layer_1
 62
7
100
AcDbSpline
 70
8
 71
3
 72
8
 73
4
 74
0
 40
0
 40
0
 40
0
 40
0
 40
1
 40
1
 40
1
 40
1
 10
26.502799
 20
42.452994
 30
0.0
 10
26.608673
 20
42.286666
 30
0.0
 10
26.560310
 20
42.065614
 30
0.0
 10
26.394768
 20
41.959212
 30
0.0
  0
SPLINE
  5
19f
100
AcDbEntity
  8
Layer_1
 62
7
100
AcDbSpline
 70
8
 71
3
 72
8
 73
4
 74
0
 40
0
 40
0
 40
0
 40
0
 40
1
 40
1
 40
1
 40
1
 10
34.451830
 20
42.220249
 30
0.0
 10
34.460996
 20
42.023677
 30
0.0
 10
34.308766
 20
41.857526
 30
0.0
 10
34.111782
 20
41.849106
 30
0.0
  0
SPLINE
  5
1a0
100
AcDbEntity
  8
Layer_1
 62
7
100
AcDbSpline
 70
8
 71
3
 72
8
 73
4
 74
0
 40
0
 40
0
 40
0
 40
0
 40
1
 40
1
 40
1
 40
1
 10
34.111782
 20
41.849106
 30
0.0
 10
33.914797
 20
41.840685
 30
0.0
 10
33.747622
 20
41.993182
 30
0.0
 10
33.738351
 20
42.189751
 30
0.0
  0
SPLINE
  5
1a1
100
AcDbEntity
  8
Layer_1
 62
7
100
AcDbSpline
 70
8
 71
3
 72
8
 73
4
 74
0
 40
0
 40
0
 40
0
 40
0
 40
1
 40
1
 40
1
 40
1
 10
33.738351
 20
42.189751
 30
0.0
 10
33.729080
 20
42.386319
 30
0.0
 10
33.881221
 20
42.552551
 30
0.0
 10
34.078201
 20
42.561076
 30
0.0
  0
SPLINE
  5
1a2
100
AcDbEntity
  8
Layer_1
 62
7
100
AcDbSpline
 70
8
 71
3
 72
8
 73
4
 74
0
 40
0
 40
0
 40
0
 40
0
 40
1
 40
1
 40
1
 40
1
 10
34.078201
 20
42.561076
 30
0.0
 10
34.275181
 20
42.569601
 30
0.0
 10
34.442437
 20
42.417192
 30
0.0
 10
34.451813
 20
42.220628
 30
0.0
  0
SPLINE
  5
1a3
100
AcDbEntity
  8
Layer_1
 62
7
100
AcDbSpline
 70
8
 71
3
 72
8
 73
4
 74
0
 40
0
 40
0
 40
0
 40
0
 40
1
 40
1
 40
1
 40
1
 10
38.254020
 20
49.329018
 30
0.0
 10
38.428841
 20
49.238670
 30
0.0
 10
38.496616
 20
49.023758
 30
0.0
 10
38.405416
 20
48.848954
 30
0.0
  0
SPLINE
  5
1a4
100
AcDbEntity
  8
Layer_1
 62
7
100
AcDbSpline
 70
8
 71
3
 72
8
 73
4
 74
0
 40
0
 40
0
 40
0
 40
0
 40
1
 40
1
 40
1
 40
1
 10
38.405416
 20
48.848954
 30
0.0
 10
38.314216
 20
48.674150
 30
0.0
 10
38.098562
 20
48.605621
 30
0.0
 10
37.923694
 20
48.695876
 30
0.0
  0
SPLINE
  5
1a5
100
AcDbEntity
  8
Layer_1
 62
7
100
AcDbSpline
 70
8
 71
3
 72
8
 73
4
 74
0
 40
0
 40
0
 40
0
 40
0
 40
1
 40
1
 40
1
 40
1
 10
37.923694
 20
48.695876
 30
0.0
 10
37.748825
 20
48.786131
 30
0.0
 10
37.680934
 20
49.001006
 30
0.0
 10
37.772042
 20
49.175858
 30
0.0
  0
SPLINE
  5
1a6
100
AcDbEntity
  8
Layer_1
 62
7
100
AcDbSpline
 70
8
 71
3
 72
8
 73
4
 74
0
 40
0
 40
0
 40
0
 40
0
 40
1
 40
1
 40
1
 40
1
 10
37.772042
 20
49.175858
 30
0.0
 10
37.863149
 20
49.350710
 30
0.0
 10
38.078767
 20
49.419352
 30
0.0
 10
38.253684
 20
49.329190
 30
0.0
  0
SPLINE
  5
1a7
100
AcDbEntity
  8
Layer_1
 62
7
100
AcDbSpline
 70
8
 71
3
 72
8
 73
4
 74
0
 40
0
 40
0
 40
0
 40
0
 40
1
 40
1
 40
1
 40
1
 10
33.999011
 20
56.175838
 30
0.0
 10
34.164665
 20
56.282063
 30
0.0
 10
34.384672
 20
56.233303
 30
0.0
 10
34.490456
 20
56.066919
 30
0.0
  0
SPLINE
  5
1a8
100
AcDbEntity
  8
Layer_1
 62
7
100
AcDbSpline
 70
8
 71
3
 72
8
 73
4
 74
0
 40
0
 40
0
 40
0
 40
0
 40
1
 40
1
 40
1
 40
1
 10
34.490456
 20
56.066919
 30
0.0
 10
34.596241
 20
55.900536
 30
0.0
 10
34.547762
 20
55.679510
 30
0.0
 10
34.382165
 20
55.573197
 30
0.0
  0
SPLINE
  5
1a9
100
AcDbEntity
  8
Layer_1
 62
7
100
AcDbSpline
 70
8
 71
3
 72
8
 73
4
 74
0
 40
0
 40
0
 40
0
 40
0
 40
1
 40
1
 40
1
 40
1
 10
34.382165
 20
55.573197
 30
0.0
 10
34.216567
 20
55.466882
 30
0.0
 10
33.996534
 20
55.515525
 30
0.0
 10
33.890662
 20
55.681853
 30
0.0
  0
SPLINE
  5
1aa
100
AcDbEntity
  8
Layer_1
 62
7
100
AcDbSpline
 70
8
 71
3
 72
8
 73
4
 74
0
 40
0
 40
0
 40
0
 40
0
 40
1
 40
1
 40
1
 40
1
 10
33.890662
 20
55.681853
 30
0.0
 10
33.784789
 20
55.848180
 30
0.0
 10
33.833152
 20
56.069232
 30
0.0
 10
33.998694
 20
56.175633
 30
0.0
  0
LWPOLYLINE
  5
1ab
100
AcDbEntity
  8
Layer_1
 62
7
100
AcDbPolyline
 90
4
 70
1
 10
37.062427
 20
72.410602
 30
0.0
 10
37.750343
 20
71.219095
 30
0.0
 10
37.131677
 20
70.861907
 30
0.0
 10
36.443760
 20
72.053414
 30
0.0
  0
SPLINE
  5
1ac
100
AcDbEntity
  8
Layer_1
 62
7
100
AcDbSpline
 70
8
 71
3
 72
8
 73
4
 74
0
 40
0
 40
0
 40
0
 40
0
 40
1
 40
1
 40
1
 40
1
 10
8.193078
 20
32.858932
 30
0.0
 10
8.359392
 20
32.965099
 30
0.0
 10
8.580276
 20
32.916366
 30
0.0
 10
8.686482
 20
32.750072
 30
0.0
  0
SPLINE
  5
1ad
100
AcDbEntity
  8
Layer_1
 62
7
100
AcDbSpline
 70
8
 71
3
 72
8
 73
4
 74
0
 40
0
 40
0
 40
0
 40
0
 40
1
 40
1
 40
1
 40
1
 10
8.686482
 20
32.750072
 30
0.0
 10
8.792689
 20
32.583778
 30
0.0
 10
8.744016
 20
32.362872
 30
0.0
 10
8.577758
 20
32.256616
 30
0.0
  0
SPLINE
  5
1ae
100
AcDbEntity
  8
Layer_1
 62
7
100
AcDbSpline
 70
8
 71
3
 72
8
 73
4
 74
0
 40
0
 40
0
 40
0
 40
0
 40
1
 40
1
 40
1
 40
1
 10
8.577758
 20
32.256616
 30
0.0
 10
8.411500
 20
32.150361
 30
0.0
 10
8.190591
 20
32.198977
 30
0.0
 10
8.084296
 20
32.365214
 30
0.0
  0
SPLINE
  5
1af
100
AcDbEntity
  8
Layer_1
 62
7
100
AcDbSpline
 70
8
 71
3
 72
8
 73
4
 74
0
 40
0
 40
0
 40
0
 40
0
 40
1
 40
1
 40
1
 40
1
 10
8.084296
 20
32.365214
 30
0.0
 10
7.978002
 20
32.531451
 30
0.0
 10
8.026557
 20
32.752382
 30
0.0
 10
8.192757
 20
32.858726
 30
0.0
  0
SPLINE
  5
1b0
100
AcDbEntity
  8
Layer_1
 62
7
100
AcDbSpline
 70
8
 71
3
 72
8
 73
4
 74
0
 40
0
 40
0
 40
0
 40
0
 40
1
 40
1
 40
1
 40
1
 10
8.193078
 20
14.338102
 30
0.0
 10
8.359392
 20
14.444269
 30
0.0
 10
8.580276
 20
14.395535
 30
0.0
 10
8.686482
 20
14.229241
 30
0.0
  0
SPLINE
  5
1b1
100
AcDbEntity
  8
Layer_1
 62
7
100
AcDbSpline
 70
8
 71
3
 72
8
 73
4
 74
0
 40
0
 40
0
 40
0
 40
0
 40
1
 40
1
 40
1
 40
1
 10
8.686482
 20
14.229241
 30
0.0
 10
8.792689
 20
14.062948
 30
0.0
 10
8.744016
 20
13.842041
 30
0.0
 10
8.577758
 20
13.735786
 30
0.0
  0
SPLINE
  5
1b2
100
AcDbEntity
  8
Layer_1
 62
7
100
AcDbSpline
 70
8
 71
3
 72
8
 73
4
 74
0
 40
0
 40
0
 40
0
 40
0
 40
1
 40
1
 40
1
 40
1
 10
8.577758
 20
13.735786
 30
0.0
 10
8.411500
 20
13.629530
 30
0.0
 10
8.190591
 20
13.678147
 30
0.0
 10
8.084296
 20
13.844384
 30
0.0
  0
SPLINE
  5
1b3
100
AcDbEntity
  8
Layer_1
 62
7
100
AcDbSpline
 70
8
 71
3
 72
8
 73
4
 74
0
 40
0
 40
0
 40
0
 40
0
 40
1
 40
1
 40
1
 40
1
 10
8.084296
 20
13.844384
 30
0.0
 10
7.978000
 20
14.010621
 30
0.0
 10
8.026555
 20
14.231554
 30
0.0
 10
8.192757
 20
14.337898
 30
0.0
  0
SPLINE
  5
1b4
100
AcDbEntity
  8
Layer_1
 62
7
100
AcDbSpline
 70
8
 71
3
 72
8
 73
4
 74
0
 40
0
 40
0
 40
0
 40
0
 40
1
 40
1
 40
1
 40
1
 10
44.176411
 20
32.858932
 30
0.0
 10
44.342725
 20
32.965099
 30
0.0
 10
44.563608
 20
32.916365
 30
0.0
 10
44.669814
 20
32.750072
 30
0.0
  0
SPLINE
  5
1b5
100
AcDbEntity
  8
Layer_1
 62
7
100
AcDbSpline
 70
8
 71
3
 72
8
 73
4
 74
0
 40
0
 40
0
 40
0
 40
0
 40
1
 40
1
 40
1
 40
1
 10
44.669814
 20
32.750072
 30
0.0
 10
44.776022
 20
32.583779
 30
0.0
 10
44.727349
 20
32.362872
 30
0.0
 10
44.561092
 20
32.256616
 30
0.0
  0
SPLINE
  5
1b6
100
AcDbEntity
  8
Layer_1
 62
7
100
AcDbSpline
 70
8
 71
3
 72
8
 73
4
 74
0
 40
0
 40
0
 40
0
 40
0
 40
1
 40
1
 40
1
 40
1
 10
44.561092
 20
32.256616
 30
0.0
 10
44.394834
 20
32.150361
 30
0.0
 10
44.173925
 20
32.198978
 30
0.0
 10
44.067631
 20
32.365214
 30
0.0
  0
SPLINE
  5
1b7
100
AcDbEntity
  8
Layer_1
 62
7
100
AcDbSpline
 70
8
 71
3
 72
8
 73
4
 74
0
 40
0
 40
0
 40
0
 40
0
 40
1
 40
1
 40
1
 40
1
 10
44.067631
 20
32.365214
 30
0.0
 10
43.961336
 20
32.531451
 30
0.0
 10
44.009891
 20
32.752382
 30
0.0
 10
44.176091
 20
32.858726
 30
0.0
  0
SPLINE
  5
1b8
100
AcDbEntity
  8
Layer_1
 62
7
100
AcDbSpline
 70
8
 71
3
 72
8
 73
4
 74
0
 40
0
 40
0
 40
0
 40
0
 40
1
 40
1
 40
1
 40
1
 10
44.176411
 20
14.338102
 30
0.0
 10
44.342725
 20
14.444268
 30
0.0
 10
44.563608
 20
14.395534
 30
0.0
 10
44.669814
 20
14.229241
 30
0.0
  0
SPLINE
  5
1b9
100
AcDbEntity
  8
Layer_1
 62
7
100
AcDbSpline
 70
8
 71
3
 72
8
 73
4
 74
0
 40
0
 40
0
 40
0
 40
0
 40
1
 40
1
 40
1
 40
1
 10
44.669814
 20
14.229241
 30
0.0
 10
44.776022
 20
14.062948
 30
0.0
 10
44.727349
 20
13.842042
 30
0.0
 10
44.561092
 20
13.735786
 30
0.0
  0
SPLINE
  5
1ba
100
AcDbEntity
  8
Layer_1
 62
7
100
AcDbSpline
 70
8
 71
3
 72
8
 73
4
 74
0
 40
0
 40
0
 40
0
 40
0
 40
1
 40
1
 40
1
 40
1
 10
44.561092
 20
13.735786
 30
0.0
 10
44.394834
 20
13.629531
 30
0.0
 10
44.173925
 20
13.678147
 30
0.0
 10
44.067631
 20
13.844384
 30
0.0
  0
SPLINE
  5
1bb
100
AcDbEntity
  8
Layer_1
 62
7
100
AcDbSpline
 70
8
 71
3
 72
8
 73
4
 74
0
 40
0
 40
0
 40
0
 40
0
 40
1
 40
1
 40
1
 40
1
 10
44.067631
 20
13.844384
 30
0.0
 10
43.961335
 20
14.010621
 30
0.0
 10
44.009890
 20
14.231554
 30
0.0
 10
44.176091
 20
14.337898
 30
0.0
  0
LWPOLYLINE
  5
1bc
100
AcDbEntity
  8
Layer_1
 62
7
100
AcDbPolyline
 90
4
 70
1
 10
5.382315
 20
35.031579
 30
0.0
 10
47.371693
 20
35.031579
 30
0.0
 10
47.371693
 20
11.563039
 30
0.0
 10
5.382315
 20
11.563039
 30
0.0
  0
ENDSEC
  0
SECTION
  2
OBJECTS
  0
DICTIONARY
  5
C
330
0
100
AcDbDictionary
  3
ACAD_GROUP
350
D
  3
ACAD_MLINESTYLE
350
17
  0
DICTIONARY
  5
D
330
C
100
AcDbDictionary
  0
DICTIONARY
  5
1A
330
C
100
AcDbDictionary
  0
DICTIONARY
  5
17
330
C
100
AcDbDictionary
  3
STANDARD
350
18
  0
DICTIONARY
  5
19
330
C
100
AcDbDictionary
  0
ENDSEC
  0
EOF
