<?xml version="1.0" encoding="UTF-8" standalone="no"?>
<!-- Created with Inkscape (http://www.inkscape.org/) -->

<svg
   xmlns:dc="http://purl.org/dc/elements/1.1/"
   xmlns:cc="http://creativecommons.org/ns#"
   xmlns:rdf="http://www.w3.org/1999/02/22-rdf-syntax-ns#"
   xmlns:svg="http://www.w3.org/2000/svg"
   xmlns="http://www.w3.org/2000/svg"
   xmlns:sodipodi="http://sodipodi.sourceforge.net/DTD/sodipodi-0.dtd"
   xmlns:inkscape="http://www.inkscape.org/namespaces/inkscape"
   width="210mm"
   height="297mm"
   viewBox="0 0 210 297"
   version="1.1"
   id="svg8"
   inkscape:version="0.92.1 r15371"
   sodipodi:docname="magnet holder v1.svg">
  <defs
     id="defs2" />
  <sodipodi:namedview
     id="base"
     pagecolor="#ffffff"
     bordercolor="#666666"
     borderopacity="1.0"
     inkscape:pageopacity="0.0"
     inkscape:pageshadow="2"
     inkscape:zoom="0.48016975"
     inkscape:cx="396.85039"
     inkscape:cy="561.25984"
     inkscape:document-units="mm"
     inkscape:current-layer="g4732"
     showgrid="false"
     inkscape:window-width="1366"
     inkscape:window-height="706"
     inkscape:window-x="-8"
     inkscape:window-y="-8"
     inkscape:window-maximized="1"
     inkscape:snap-bbox="true"
     inkscape:snap-bbox-midpoints="true"
     inkscape:bbox-paths="true"
     inkscape:bbox-nodes="true"
     inkscape:snap-bbox-edge-midpoints="true" />
  <metadata
     id="metadata5">
    <rdf:RDF>
      <cc:Work
         rdf:about="">
        <dc:format>image/svg+xml</dc:format>
        <dc:type
           rdf:resource="http://purl.org/dc/dcmitype/StillImage" />
        <dc:title></dc:title>
      </cc:Work>
    </rdf:RDF>
  </metadata>
  <g
     inkscape:label="Layer 1"
     inkscape:groupmode="layer"
     id="layer1">
    <path
       style="opacity:1;fill:none;fill-opacity:1;fill-rule:nonzero;stroke:#000000;stroke-width:0.30000001;stroke-linecap:square;stroke-linejoin:round;stroke-miterlimit:4;stroke-dasharray:none;stroke-opacity:1"
       id="path4487"
       sodipodi:type="arc"
       sodipodi:cx="43.958767"
       sodipodi:cy="41.341206"
       sodipodi:rx="8.3448362"
       sodipodi:ry="8.3507414"
       sodipodi:start="4.1442669"
       sodipodi:end="4.1432022"
       sodipodi:open="true"
       d="M 39.468827,34.302258 A 8.3448362,8.3507414 0 0 1 50.991541,36.846215 8.3448362,8.3507414 0 0 1 48.452451,48.37776 8.3448362,8.3507414 0 0 1 36.928385,45.839942 8.3448362,8.3507414 0 0 1 39.461341,34.307046" />
    <path
       style="opacity:1;fill:none;fill-opacity:1;fill-rule:nonzero;stroke:#000000;stroke-width:0.30000001;stroke-linecap:square;stroke-linejoin:round;stroke-miterlimit:4;stroke-dasharray:none;stroke-opacity:1"
       id="path4487-1"
       sodipodi:type="arc"
       sodipodi:cx="43.958759"
       sodipodi:cy="41.341213"
       sodipodi:rx="34.846455"
       sodipodi:ry="34.846451"
       sodipodi:start="4.1442669"
       sodipodi:end="4.1432022"
       sodipodi:open="true"
       d="M 25.209622,11.968691 A 34.846455,34.846451 0 0 1 73.326293,22.58426 34.846455,34.846451 0 0 1 62.723531,70.70375 34.846455,34.846451 0 0 1 14.601215,60.113797 34.846455,34.846451 0 0 1 25.178359,11.98867" />
    <rect
       style="opacity:1;fill:none;fill-opacity:1;fill-rule:nonzero;stroke:#000000;stroke-width:0.30000001;stroke-linecap:square;stroke-linejoin:round;stroke-miterlimit:4;stroke-dasharray:none;stroke-opacity:1"
       id="rect4504"
       width="5.1999998"
       height="2.7"
       x="41.358761"
       y="9.9912071"
       rx="2.6020846e-017"
       ry="2.6020846e-017"
       inkscape:transform-center-x="0.024912607"
       inkscape:transform-center-y="-29.859243" />
    <path
       style="opacity:1;fill:none;fill-opacity:1;fill-rule:nonzero;stroke:#000000;stroke-width:0.30000001;stroke-linecap:square;stroke-linejoin:round;stroke-miterlimit:4;stroke-dasharray:none;stroke-opacity:1"
       id="path4551"
       sodipodi:type="arc"
       sodipodi:cx="43.958767"
       sodipodi:cy="28.842625"
       sodipodi:rx="1.3457091"
       sodipodi:ry="1.3528879"
       sodipodi:start="4.1442669"
       sodipodi:end="4.1432022"
       sodipodi:open="true"
       d="m 43.234708,27.702258 a 1.3457091,1.3528879 0 0 1 1.858182,0.412142 1.3457091,1.3528879 0 0 1 -0.40946,1.868204 1.3457091,1.3528879 0 0 1 -1.8584,-0.411148 1.3457091,1.3528879 0 0 1 0.408471,-1.868422" />
    <path
       style="opacity:1;fill:none;fill-opacity:1;fill-rule:nonzero;stroke:#000000;stroke-width:0.30000001;stroke-linecap:square;stroke-linejoin:round;stroke-miterlimit:4;stroke-dasharray:none;stroke-opacity:1"
       id="path4551-4"
       sodipodi:type="arc"
       sodipodi:cx="43.958767"
       sodipodi:cy="53.839779"
       sodipodi:rx="1.3457091"
       sodipodi:ry="1.3528879"
       sodipodi:start="4.1442669"
       sodipodi:end="4.1432022"
       sodipodi:open="true"
       d="m 43.234708,52.699412 a 1.3457091,1.3528879 0 0 1 1.858182,0.412142 1.3457091,1.3528879 0 0 1 -0.40946,1.868204 1.3457091,1.3528879 0 0 1 -1.8584,-0.411147 1.3457091,1.3528879 0 0 1 0.408471,-1.868423" />
    <rect
       inkscape:transform-center-y="-14.908045"
       inkscape:transform-center-x="25.871317"
       ry="2.6020846e-017"
       rx="2.6020846e-017"
       y="27.481964"
       x="-16.313711"
       height="2.7"
       width="5.1999998"
       id="rect4568"
       style="opacity:1;fill:none;fill-opacity:1;fill-rule:nonzero;stroke:#000000;stroke-width:0.30000001;stroke-linecap:square;stroke-linejoin:round;stroke-miterlimit:4;stroke-dasharray:none;stroke-opacity:1"
       transform="rotate(-60)" />
    <rect
       transform="rotate(-120)"
       style="opacity:1;fill:none;fill-opacity:1;fill-rule:nonzero;stroke:#000000;stroke-width:0.30000001;stroke-linecap:square;stroke-linejoin:round;stroke-miterlimit:4;stroke-dasharray:none;stroke-opacity:1"
       id="rect4570"
       width="5.1999998"
       height="2.7"
       x="-60.29739"
       y="-13.718487"
       rx="2.6020846e-017"
       ry="2.6020846e-017"
       inkscape:transform-center-x="25.846403"
       inkscape:transform-center-y="14.951198" />
    <rect
       inkscape:transform-center-y="29.859244"
       inkscape:transform-center-x="-0.024919336"
       ry="2.6020846e-017"
       rx="2.6020846e-017"
       y="-72.409698"
       x="-46.608593"
       height="2.7"
       width="5.1999998"
       id="rect4572"
       style="opacity:1;fill:none;fill-opacity:1;fill-rule:nonzero;stroke:#000000;stroke-width:0.30000001;stroke-linecap:square;stroke-linejoin:round;stroke-miterlimit:4;stroke-dasharray:none;stroke-opacity:1"
       transform="scale(-1)" />
    <rect
       transform="rotate(120)"
       style="opacity:1;fill:none;fill-opacity:1;fill-rule:nonzero;stroke:#000000;stroke-width:0.30000001;stroke-linecap:square;stroke-linejoin:round;stroke-miterlimit:4;stroke-dasharray:none;stroke-opacity:1"
       id="rect4574"
       width="5.1999998"
       height="2.7"
       x="11.06388"
       y="-89.900452"
       rx="2.6020846e-017"
       ry="2.6020846e-017"
       inkscape:transform-center-x="-25.871326"
       inkscape:transform-center-y="14.908042" />
    <rect
       inkscape:transform-center-y="-14.951202"
       inkscape:transform-center-x="-25.846407"
       ry="2.6020846e-017"
       rx="2.6020846e-017"
       y="-48.700001"
       x="55.047558"
       height="2.7"
       width="5.1999998"
       id="rect4576"
       style="opacity:1;fill:none;fill-opacity:1;fill-rule:nonzero;stroke:#000000;stroke-width:0.30000001;stroke-linecap:square;stroke-linejoin:round;stroke-miterlimit:4;stroke-dasharray:none;stroke-opacity:1"
       transform="rotate(60)" />
    <path
       style="opacity:1;fill:none;fill-opacity:1;fill-rule:nonzero;stroke:#000000;stroke-width:0.30000001;stroke-linecap:square;stroke-linejoin:round;stroke-miterlimit:4;stroke-dasharray:none;stroke-opacity:1"
       id="path4578"
       sodipodi:type="arc"
       sodipodi:cx="1.316167"
       sodipodi:cy="32.745865"
       sodipodi:rx="1.3451616"
       sodipodi:ry="1.3513185"
       sodipodi:start="4.1442669"
       sodipodi:end="4.1432022"
       sodipodi:open="true"
       d="M 0.59240272,31.606821 A 1.3451616,1.3513185 0 0 1 2.4498283,32.018485 1.3451616,1.3513185 0 0 1 2.0405348,33.884521 1.3451616,1.3513185 0 0 1 0.18289131,33.473851 1.3451616,1.3513185 0 0 1 0.59119592,31.607596"
       transform="rotate(-60)"
       inkscape:transform-center-x="14.733339"
       inkscape:transform-center-y="-25.936066" />
    <path
       inkscape:transform-center-y="-0.20858453"
       inkscape:transform-center-x="29.82796"
       transform="rotate(-120)"
       d="m -43.157774,-9.5623435 a 1.3451616,1.3513185 0 0 1 1.857426,0.4116635 1.3451616,1.3513185 0 0 1 -0.409294,1.8660367 1.3451616,1.3513185 0 0 1 -1.857643,-0.4106702 1.3451616,1.3513185 0 0 1 0.408304,-1.8662553"
       sodipodi:open="true"
       sodipodi:end="4.1432022"
       sodipodi:start="4.1442669"
       sodipodi:ry="1.3513185"
       sodipodi:rx="1.3451616"
       sodipodi:cy="-8.4232998"
       sodipodi:cx="-42.43401"
       sodipodi:type="arc"
       id="path4580"
       style="opacity:1;fill:none;fill-opacity:1;fill-rule:nonzero;stroke:#000000;stroke-width:0.30000001;stroke-linecap:square;stroke-linejoin:round;stroke-miterlimit:4;stroke-dasharray:none;stroke-opacity:1" />
    <path
       style="opacity:1;fill:none;fill-opacity:1;fill-rule:nonzero;stroke:#000000;stroke-width:0.30000001;stroke-linecap:square;stroke-linejoin:round;stroke-miterlimit:4;stroke-dasharray:none;stroke-opacity:1"
       id="path4582"
       sodipodi:type="arc"
       sodipodi:cx="-28.655552"
       sodipodi:cy="-66.896637"
       sodipodi:rx="1.3451616"
       sodipodi:ry="1.3513185"
       sodipodi:start="4.1442669"
       sodipodi:end="4.1432022"
       sodipodi:open="true"
       d="m -29.379316,-68.035681 a 1.3451616,1.3513185 0 0 1 1.857425,0.411664 1.3451616,1.3513185 0 0 1 -0.409293,1.866037 1.3451616,1.3513185 0 0 1 -1.857644,-0.410671 1.3451616,1.3513185 0 0 1 0.408305,-1.866255"
       transform="scale(-1)"
       inkscape:transform-center-x="15.094621"
       inkscape:transform-center-y="25.727469" />
    <path
       inkscape:transform-center-y="25.936064"
       inkscape:transform-center-x="-14.733338"
       transform="rotate(120)"
       d="m 28.149311,-85.339865 a 1.3451616,1.3513185 0 0 1 1.857426,0.411664 1.3451616,1.3513185 0 0 1 -0.409294,1.866037 1.3451616,1.3513185 0 0 1 -1.857643,-0.410671 1.3451616,1.3513185 0 0 1 0.408304,-1.866255"
       sodipodi:open="true"
       sodipodi:end="4.1432022"
       sodipodi:start="4.1442669"
       sodipodi:ry="1.3513185"
       sodipodi:rx="1.3451616"
       sodipodi:cy="-84.200821"
       sodipodi:cx="28.873075"
       sodipodi:type="arc"
       id="path4584"
       style="opacity:1;fill:none;fill-opacity:1;fill-rule:nonzero;stroke:#000000;stroke-width:0.30000001;stroke-linecap:square;stroke-linejoin:round;stroke-miterlimit:4;stroke-dasharray:none;stroke-opacity:1" />
    <path
       style="opacity:1;fill:none;fill-opacity:1;fill-rule:nonzero;stroke:#000000;stroke-width:0.30000001;stroke-linecap:square;stroke-linejoin:round;stroke-miterlimit:4;stroke-dasharray:none;stroke-opacity:1"
       id="path4586"
       sodipodi:type="arc"
       sodipodi:cx="72.623253"
       sodipodi:cy="-43.031658"
       sodipodi:rx="1.3451616"
       sodipodi:ry="1.3513185"
       sodipodi:start="4.1442669"
       sodipodi:end="4.1432022"
       sodipodi:open="true"
       d="m 71.899489,-44.170702 a 1.3451616,1.3513185 0 0 1 1.857425,0.411664 1.3451616,1.3513185 0 0 1 -0.409293,1.866036 1.3451616,1.3513185 0 0 1 -1.857644,-0.41067 1.3451616,1.3513185 0 0 1 0.408305,-1.866255"
       transform="rotate(60)"
       inkscape:transform-center-x="-29.827963"
       inkscape:transform-center-y="0.20859224" />
    <path
       inkscape:transform-center-y="-25.727479"
       inkscape:transform-center-x="-15.094626"
       d="m 58.121035,14.302641 a 1.3451616,1.3513185 0 0 1 1.857425,0.411664 1.3451616,1.3513185 0 0 1 -0.409293,1.866036 1.3451616,1.3513185 0 0 1 -1.857644,-0.41067 1.3451616,1.3513185 0 0 1 0.408305,-1.866255"
       sodipodi:open="true"
       sodipodi:end="4.1432022"
       sodipodi:start="4.1442669"
       sodipodi:ry="1.3513185"
       sodipodi:rx="1.3451616"
       sodipodi:cy="15.441685"
       sodipodi:cx="58.844799"
       sodipodi:type="arc"
       id="path4588"
       style="opacity:1;fill:none;fill-opacity:1;fill-rule:nonzero;stroke:#000000;stroke-width:0.30000001;stroke-linecap:square;stroke-linejoin:round;stroke-miterlimit:4;stroke-dasharray:none;stroke-opacity:1" />
    <path
       d="m 109.84805,34.302258 a 8.3448362,8.3507414 0 0 1 11.52271,2.543957 8.3448362,8.3507414 0 0 1 -2.53909,11.531545 8.3448362,8.3507414 0 0 1 -11.52406,-2.537818 8.3448362,8.3507414 0 0 1 2.53295,-11.532896"
       sodipodi:open="true"
       sodipodi:end="4.1432022"
       sodipodi:start="4.1442669"
       sodipodi:ry="8.3507414"
       sodipodi:rx="8.3448362"
       sodipodi:cy="41.341206"
       sodipodi:cx="114.33799"
       sodipodi:type="arc"
       id="path4590"
       style="opacity:1;fill:none;fill-opacity:1;fill-rule:nonzero;stroke:#000000;stroke-width:0.30000001;stroke-linecap:square;stroke-linejoin:round;stroke-miterlimit:4;stroke-dasharray:none;stroke-opacity:1" />
    <path
       d="M 95.588852,11.968691 A 34.846455,34.846451 0 0 1 143.70552,22.58426 34.846455,34.846451 0 0 1 133.10276,70.70375 34.846455,34.846451 0 0 1 84.980446,60.113797 34.846455,34.846451 0 0 1 95.55759,11.98867"
       sodipodi:open="true"
       sodipodi:end="4.1432022"
       sodipodi:start="4.1442669"
       sodipodi:ry="34.846451"
       sodipodi:rx="34.846455"
       sodipodi:cy="41.341213"
       sodipodi:cx="114.33799"
       sodipodi:type="arc"
       id="path4592"
       style="opacity:1;fill:none;fill-opacity:1;fill-rule:nonzero;stroke:#000000;stroke-width:0.30000001;stroke-linecap:square;stroke-linejoin:round;stroke-miterlimit:4;stroke-dasharray:none;stroke-opacity:1" />
    <rect
       inkscape:transform-center-y="-29.859243"
       inkscape:transform-center-x="0.024912607"
       ry="2.6020846e-017"
       rx="2.6020846e-017"
       y="9.9912071"
       x="111.73798"
       height="2.7"
       width="5.1999998"
       id="rect4594"
       style="opacity:1;fill:none;fill-opacity:1;fill-rule:nonzero;stroke:#000000;stroke-width:0.30000001;stroke-linecap:square;stroke-linejoin:round;stroke-miterlimit:4;stroke-dasharray:none;stroke-opacity:1" />
    <path
       d="m 113.61393,27.702258 a 1.3457091,1.3528879 0 0 1 1.85818,0.412142 1.3457091,1.3528879 0 0 1 -0.40946,1.868204 1.3457091,1.3528879 0 0 1 -1.8584,-0.411148 1.3457091,1.3528879 0 0 1 0.40847,-1.868422"
       sodipodi:open="true"
       sodipodi:end="4.1432022"
       sodipodi:start="4.1442669"
       sodipodi:ry="1.3528879"
       sodipodi:rx="1.3457091"
       sodipodi:cy="28.842625"
       sodipodi:cx="114.33799"
       sodipodi:type="arc"
       id="path4596"
       style="opacity:1;fill:none;fill-opacity:1;fill-rule:nonzero;stroke:#000000;stroke-width:0.30000001;stroke-linecap:square;stroke-linejoin:round;stroke-miterlimit:4;stroke-dasharray:none;stroke-opacity:1" />
    <path
       d="m 113.61393,52.699412 a 1.3457091,1.3528879 0 0 1 1.85818,0.412142 1.3457091,1.3528879 0 0 1 -0.40946,1.868204 1.3457091,1.3528879 0 0 1 -1.8584,-0.411147 1.3457091,1.3528879 0 0 1 0.40847,-1.868423"
       sodipodi:open="true"
       sodipodi:end="4.1432022"
       sodipodi:start="4.1442669"
       sodipodi:ry="1.3528879"
       sodipodi:rx="1.3457091"
       sodipodi:cy="53.839779"
       sodipodi:cx="114.33799"
       sodipodi:type="arc"
       id="path4598"
       style="opacity:1;fill:none;fill-opacity:1;fill-rule:nonzero;stroke:#000000;stroke-width:0.30000001;stroke-linecap:square;stroke-linejoin:round;stroke-miterlimit:4;stroke-dasharray:none;stroke-opacity:1" />
    <rect
       transform="rotate(-60)"
       style="opacity:1;fill:none;fill-opacity:1;fill-rule:nonzero;stroke:#000000;stroke-width:0.30000001;stroke-linecap:square;stroke-linejoin:round;stroke-miterlimit:4;stroke-dasharray:none;stroke-opacity:1"
       id="rect4600"
       width="5.1999998"
       height="2.7"
       x="18.875883"
       y="88.432213"
       rx="2.6020846e-017"
       ry="2.6020846e-017"
       inkscape:transform-center-x="25.871317"
       inkscape:transform-center-y="-14.908045" />
    <rect
       inkscape:transform-center-y="14.951198"
       inkscape:transform-center-x="25.846403"
       ry="2.6020846e-017"
       rx="2.6020846e-017"
       y="47.231617"
       x="-95.486549"
       height="2.7"
       width="5.1999998"
       id="rect4602"
       style="opacity:1;fill:none;fill-opacity:1;fill-rule:nonzero;stroke:#000000;stroke-width:0.30000001;stroke-linecap:square;stroke-linejoin:round;stroke-miterlimit:4;stroke-dasharray:none;stroke-opacity:1"
       transform="rotate(-120)" />
    <rect
       transform="scale(-1)"
       style="opacity:1;fill:none;fill-opacity:1;fill-rule:nonzero;stroke:#000000;stroke-width:0.30000001;stroke-linecap:square;stroke-linejoin:round;stroke-miterlimit:4;stroke-dasharray:none;stroke-opacity:1"
       id="rect4604"
       width="5.1999998"
       height="2.7"
       x="-116.9878"
       y="-72.409698"
       rx="2.6020846e-017"
       ry="2.6020846e-017"
       inkscape:transform-center-x="-0.024919336"
       inkscape:transform-center-y="29.859244" />
    <rect
       inkscape:transform-center-y="14.908042"
       inkscape:transform-center-x="-25.871326"
       ry="2.6020846e-017"
       rx="2.6020846e-017"
       y="-150.85065"
       x="-24.125715"
       height="2.7"
       width="5.1999998"
       id="rect4606"
       style="opacity:1;fill:none;fill-opacity:1;fill-rule:nonzero;stroke:#000000;stroke-width:0.30000001;stroke-linecap:square;stroke-linejoin:round;stroke-miterlimit:4;stroke-dasharray:none;stroke-opacity:1"
       transform="rotate(120)" />
    <rect
       transform="rotate(60)"
       style="opacity:1;fill:none;fill-opacity:1;fill-rule:nonzero;stroke:#000000;stroke-width:0.30000001;stroke-linecap:square;stroke-linejoin:round;stroke-miterlimit:4;stroke-dasharray:none;stroke-opacity:1"
       id="rect4608"
       width="5.1999998"
       height="2.7"
       x="90.236794"
       y="-109.65044"
       rx="2.6020846e-017"
       ry="2.6020846e-017"
       inkscape:transform-center-x="-25.846407"
       inkscape:transform-center-y="-14.951202" />
    <path
       inkscape:transform-center-y="-25.936066"
       inkscape:transform-center-x="14.733339"
       transform="rotate(-60)"
       d="m 35.782007,92.557116 a 1.3451616,1.3513185 0 0 1 1.857426,0.411663 1.3451616,1.3513185 0 0 1 -0.409294,1.866037 1.3451616,1.3513185 0 0 1 -1.857643,-0.41067 1.3451616,1.3513185 0 0 1 0.408305,-1.866256"
       sodipodi:open="true"
       sodipodi:end="4.1432022"
       sodipodi:start="4.1442669"
       sodipodi:ry="1.3513185"
       sodipodi:rx="1.3451616"
       sodipodi:cy="93.696159"
       sodipodi:cx="36.505772"
       sodipodi:type="arc"
       id="path4610"
       style="opacity:1;fill:none;fill-opacity:1;fill-rule:nonzero;stroke:#000000;stroke-width:0.30000001;stroke-linecap:square;stroke-linejoin:round;stroke-miterlimit:4;stroke-dasharray:none;stroke-opacity:1" />
    <path
       style="opacity:1;fill:none;fill-opacity:1;fill-rule:nonzero;stroke:#000000;stroke-width:0.30000001;stroke-linecap:square;stroke-linejoin:round;stroke-miterlimit:4;stroke-dasharray:none;stroke-opacity:1"
       id="path4612"
       sodipodi:type="arc"
       sodipodi:cx="-77.623428"
       sodipodi:cy="52.526794"
       sodipodi:rx="1.3451616"
       sodipodi:ry="1.3513185"
       sodipodi:start="4.1442669"
       sodipodi:end="4.1432022"
       sodipodi:open="true"
       d="m -78.347193,51.387751 a 1.3451616,1.3513185 0 0 1 1.857426,0.411663 1.3451616,1.3513185 0 0 1 -0.409294,1.866037 1.3451616,1.3513185 0 0 1 -1.857643,-0.41067 1.3451616,1.3513185 0 0 1 0.408305,-1.866256"
       transform="rotate(-120)"
       inkscape:transform-center-x="29.82796"
       inkscape:transform-center-y="-0.20858453" />
    <path
       inkscape:transform-center-y="25.727469"
       inkscape:transform-center-x="15.094621"
       transform="scale(-1)"
       d="m -99.758547,-68.035681 a 1.3451616,1.3513185 0 0 1 1.857426,0.411664 1.3451616,1.3513185 0 0 1 -0.409294,1.866037 1.3451616,1.3513185 0 0 1 -1.857645,-0.410671 1.3451616,1.3513185 0 0 1 0.408307,-1.866255"
       sodipodi:open="true"
       sodipodi:end="4.1432022"
       sodipodi:start="4.1442669"
       sodipodi:ry="1.3513185"
       sodipodi:rx="1.3451616"
       sodipodi:cy="-66.896637"
       sodipodi:cx="-99.034782"
       sodipodi:type="arc"
       id="path4614"
       style="opacity:1;fill:none;fill-opacity:1;fill-rule:nonzero;stroke:#000000;stroke-width:0.30000001;stroke-linecap:square;stroke-linejoin:round;stroke-miterlimit:4;stroke-dasharray:none;stroke-opacity:1" />
    <path
       style="opacity:1;fill:none;fill-opacity:1;fill-rule:nonzero;stroke:#000000;stroke-width:0.30000001;stroke-linecap:square;stroke-linejoin:round;stroke-miterlimit:4;stroke-dasharray:none;stroke-opacity:1"
       id="path4616"
       sodipodi:type="arc"
       sodipodi:cx="-6.3165226"
       sodipodi:cy="-145.15112"
       sodipodi:rx="1.3451616"
       sodipodi:ry="1.3513185"
       sodipodi:start="4.1442669"
       sodipodi:end="4.1432022"
       sodipodi:open="true"
       d="m -7.0402869,-146.29017 a 1.3451616,1.3513185 0 0 1 1.8574256,0.41167 1.3451616,1.3513185 0 0 1 -0.4092935,1.86603 1.3451616,1.3513185 0 0 1 -1.8576435,-0.41067 1.3451616,1.3513185 0 0 1 0.4083046,-1.86625"
       transform="rotate(120)"
       inkscape:transform-center-x="-14.733338"
       inkscape:transform-center-y="25.936064" />
    <path
       inkscape:transform-center-y="0.20859224"
       inkscape:transform-center-x="-29.827963"
       transform="rotate(60)"
       d="m 107.08861,-105.12109 a 1.3451616,1.3513185 0 0 1 1.85742,0.41166 1.3451616,1.3513185 0 0 1 -0.40929,1.86604 1.3451616,1.3513185 0 0 1 -1.85765,-0.41067 1.3451616,1.3513185 0 0 1 0.40831,-1.86626"
       sodipodi:open="true"
       sodipodi:end="4.1432022"
       sodipodi:start="4.1442669"
       sodipodi:ry="1.3513185"
       sodipodi:rx="1.3451616"
       sodipodi:cy="-103.98205"
       sodipodi:cx="107.81237"
       sodipodi:type="arc"
       id="path4618"
       style="opacity:1;fill:none;fill-opacity:1;fill-rule:nonzero;stroke:#000000;stroke-width:0.30000001;stroke-linecap:square;stroke-linejoin:round;stroke-miterlimit:4;stroke-dasharray:none;stroke-opacity:1" />
    <path
       style="opacity:1;fill:none;fill-opacity:1;fill-rule:nonzero;stroke:#000000;stroke-width:0.30000001;stroke-linecap:square;stroke-linejoin:round;stroke-miterlimit:4;stroke-dasharray:none;stroke-opacity:1"
       id="path4620"
       sodipodi:type="arc"
       sodipodi:cx="129.22397"
       sodipodi:cy="15.441685"
       sodipodi:rx="1.3451616"
       sodipodi:ry="1.3513185"
       sodipodi:start="4.1442669"
       sodipodi:end="4.1432022"
       sodipodi:open="true"
       d="m 128.5002,14.302641 a 1.3451616,1.3513185 0 0 1 1.85743,0.411664 1.3451616,1.3513185 0 0 1 -0.40929,1.866036 1.3451616,1.3513185 0 0 1 -1.85765,-0.41067 1.3451616,1.3513185 0 0 1 0.40831,-1.866255"
       inkscape:transform-center-x="-15.094626"
       inkscape:transform-center-y="-25.727479" />
    <path
       d="m 39.468827,104.68145 a 8.3448362,8.3507414 0 0 1 11.522714,2.54396 8.3448362,8.3507414 0 0 1 -2.53909,11.53154 8.3448362,8.3507414 0 0 1 -11.524066,-2.53782 8.3448362,8.3507414 0 0 1 2.532956,-11.53289"
       sodipodi:open="true"
       sodipodi:end="4.1432022"
       sodipodi:start="4.1442669"
       sodipodi:ry="8.3507414"
       sodipodi:rx="8.3448362"
       sodipodi:cy="111.7204"
       sodipodi:cx="43.958767"
       sodipodi:type="arc"
       id="path4654"
       style="opacity:1;fill:none;fill-opacity:1;fill-rule:nonzero;stroke:#000000;stroke-width:0.30000001;stroke-linecap:square;stroke-linejoin:round;stroke-miterlimit:4;stroke-dasharray:none;stroke-opacity:1" />
    <path
       d="M 25.209622,82.347922 A 34.846455,34.846451 0 0 1 73.326293,92.963491 34.846455,34.846451 0 0 1 62.723531,141.08298 34.846455,34.846451 0 0 1 14.601215,130.49303 34.846455,34.846451 0 0 1 25.178359,82.367901"
       sodipodi:open="true"
       sodipodi:end="4.1432022"
       sodipodi:start="4.1442669"
       sodipodi:ry="34.846451"
       sodipodi:rx="34.846455"
       sodipodi:cy="111.72044"
       sodipodi:cx="43.958759"
       sodipodi:type="arc"
       id="path4656"
       style="opacity:1;fill:none;fill-opacity:1;fill-rule:nonzero;stroke:#000000;stroke-width:0.30000001;stroke-linecap:square;stroke-linejoin:round;stroke-miterlimit:4;stroke-dasharray:none;stroke-opacity:1" />
    <path
       d="m 43.234708,98.081489 a 1.3457091,1.3528879 0 0 1 1.858182,0.412141 1.3457091,1.3528879 0 0 1 -0.40946,1.8682 1.3457091,1.3528879 0 0 1 -1.8584,-0.411143 1.3457091,1.3528879 0 0 1 0.408471,-1.868423"
       sodipodi:open="true"
       sodipodi:end="4.1432022"
       sodipodi:start="4.1442669"
       sodipodi:ry="1.3528879"
       sodipodi:rx="1.3457091"
       sodipodi:cy="99.221855"
       sodipodi:cx="43.958767"
       sodipodi:type="arc"
       id="path4660"
       style="opacity:1;fill:none;fill-opacity:1;fill-rule:nonzero;stroke:#000000;stroke-width:0.30000001;stroke-linecap:square;stroke-linejoin:round;stroke-miterlimit:4;stroke-dasharray:none;stroke-opacity:1" />
    <path
       d="m 43.234708,123.07857 a 1.3457091,1.3528879 0 0 1 1.858182,0.41215 1.3457091,1.3528879 0 0 1 -0.40946,1.8682 1.3457091,1.3528879 0 0 1 -1.8584,-0.41115 1.3457091,1.3528879 0 0 1 0.408471,-1.86842"
       sodipodi:open="true"
       sodipodi:end="4.1432022"
       sodipodi:start="4.1442669"
       sodipodi:ry="1.3528879"
       sodipodi:rx="1.3457091"
       sodipodi:cy="124.21894"
       sodipodi:cx="43.958767"
       sodipodi:type="arc"
       id="path4662"
       style="opacity:1;fill:none;fill-opacity:1;fill-rule:nonzero;stroke:#000000;stroke-width:0.30000001;stroke-linecap:square;stroke-linejoin:round;stroke-miterlimit:4;stroke-dasharray:none;stroke-opacity:1" />
    <path
       inkscape:transform-center-y="-25.936066"
       inkscape:transform-center-x="14.733339"
       transform="rotate(-60)"
       d="m -60.357679,66.796381 a 1.3451616,1.3513185 0 0 1 1.857425,0.411664 1.3451616,1.3513185 0 0 1 -0.409293,1.866036 1.3451616,1.3513185 0 0 1 -1.857644,-0.41067 1.3451616,1.3513185 0 0 1 0.408305,-1.866255"
       sodipodi:open="true"
       sodipodi:end="4.1432022"
       sodipodi:start="4.1442669"
       sodipodi:ry="1.3513185"
       sodipodi:rx="1.3451616"
       sodipodi:cy="67.935425"
       sodipodi:cx="-59.633915"
       sodipodi:type="arc"
       id="path4674"
       style="opacity:1;fill:none;fill-opacity:1;fill-rule:nonzero;stroke:#000000;stroke-width:0.30000001;stroke-linecap:square;stroke-linejoin:round;stroke-miterlimit:4;stroke-dasharray:none;stroke-opacity:1" />
    <path
       style="opacity:1;fill:none;fill-opacity:1;fill-rule:nonzero;stroke:#000000;stroke-width:0.30000001;stroke-linecap:square;stroke-linejoin:round;stroke-miterlimit:4;stroke-dasharray:none;stroke-opacity:1"
       id="path4676"
       sodipodi:type="arc"
       sodipodi:cx="-103.38439"
       sodipodi:cy="-43.612915"
       sodipodi:rx="1.3451616"
       sodipodi:ry="1.3513185"
       sodipodi:start="4.1442669"
       sodipodi:end="4.1432022"
       sodipodi:open="true"
       d="m -104.10816,-44.751959 a 1.3451616,1.3513185 0 0 1 1.85743,0.411664 1.3451616,1.3513185 0 0 1 -0.40929,1.866036 1.3451616,1.3513185 0 0 1 -1.85765,-0.41067 1.3451616,1.3513185 0 0 1 0.40831,-1.866255"
       transform="rotate(-120)"
       inkscape:transform-center-x="29.82796"
       inkscape:transform-center-y="-0.20858453" />
    <path
       inkscape:transform-center-y="25.727469"
       inkscape:transform-center-x="15.094621"
       transform="scale(-1)"
       d="m -29.379316,-138.41477 a 1.3451616,1.3513185 0 0 1 1.857425,0.41166 1.3451616,1.3513185 0 0 1 -0.409293,1.86604 1.3451616,1.3513185 0 0 1 -1.857644,-0.41067 1.3451616,1.3513185 0 0 1 0.408305,-1.86626"
       sodipodi:open="true"
       sodipodi:end="4.1432022"
       sodipodi:start="4.1442669"
       sodipodi:ry="1.3513185"
       sodipodi:rx="1.3451616"
       sodipodi:cy="-137.27573"
       sodipodi:cx="-28.655552"
       sodipodi:type="arc"
       id="path4678"
       style="opacity:1;fill:none;fill-opacity:1;fill-rule:nonzero;stroke:#000000;stroke-width:0.30000001;stroke-linecap:square;stroke-linejoin:round;stroke-miterlimit:4;stroke-dasharray:none;stroke-opacity:1" />
    <path
       style="opacity:1;fill:none;fill-opacity:1;fill-rule:nonzero;stroke:#000000;stroke-width:0.30000001;stroke-linecap:square;stroke-linejoin:round;stroke-miterlimit:4;stroke-dasharray:none;stroke-opacity:1"
       id="path4680"
       sodipodi:type="arc"
       sodipodi:cx="89.823341"
       sodipodi:cy="-119.38995"
       sodipodi:rx="1.3451616"
       sodipodi:ry="1.3513185"
       sodipodi:start="4.1442669"
       sodipodi:end="4.1432022"
       sodipodi:open="true"
       d="m 89.099577,-120.529 a 1.3451616,1.3513185 0 0 1 1.857426,0.41167 1.3451616,1.3513185 0 0 1 -0.409294,1.86603 1.3451616,1.3513185 0 0 1 -1.857643,-0.41067 1.3451616,1.3513185 0 0 1 0.408304,-1.86625"
       transform="rotate(120)"
       inkscape:transform-center-x="-14.733338"
       inkscape:transform-center-y="25.936064" />
    <path
       inkscape:transform-center-y="0.20859224"
       inkscape:transform-center-x="-29.827963"
       transform="rotate(60)"
       d="m 132.84997,-8.9810843 a 1.3451616,1.3513185 0 0 1 1.85742,0.4116636 1.3451616,1.3513185 0 0 1 -0.40929,1.8660367 1.3451616,1.3513185 0 0 1 -1.85765,-0.4106702 1.3451616,1.3513185 0 0 1 0.40831,-1.8662553"
       sodipodi:open="true"
       sodipodi:end="4.1432022"
       sodipodi:start="4.1442669"
       sodipodi:ry="1.3513185"
       sodipodi:rx="1.3451616"
       sodipodi:cy="-7.8420405"
       sodipodi:cx="133.57373"
       sodipodi:type="arc"
       id="path4682"
       style="opacity:1;fill:none;fill-opacity:1;fill-rule:nonzero;stroke:#000000;stroke-width:0.30000001;stroke-linecap:square;stroke-linejoin:round;stroke-miterlimit:4;stroke-dasharray:none;stroke-opacity:1" />
    <path
       style="opacity:1;fill:none;fill-opacity:1;fill-rule:nonzero;stroke:#000000;stroke-width:0.30000001;stroke-linecap:square;stroke-linejoin:round;stroke-miterlimit:4;stroke-dasharray:none;stroke-opacity:1"
       id="path4684"
       sodipodi:type="arc"
       sodipodi:cx="58.844799"
       sodipodi:cy="85.820915"
       sodipodi:rx="1.3451616"
       sodipodi:ry="1.3513185"
       sodipodi:start="4.1442669"
       sodipodi:end="4.1432022"
       sodipodi:open="true"
       d="m 58.121035,84.681871 a 1.3451616,1.3513185 0 0 1 1.857425,0.411664 1.3451616,1.3513185 0 0 1 -0.409293,1.866037 1.3451616,1.3513185 0 0 1 -1.857644,-0.41067 1.3451616,1.3513185 0 0 1 0.408305,-1.866256"
       inkscape:transform-center-x="-15.094626"
       inkscape:transform-center-y="-25.727479" />
    <path
       style="opacity:1;fill:none;fill-opacity:1;fill-rule:nonzero;stroke:#000000;stroke-width:0.30000001;stroke-linecap:square;stroke-linejoin:round;stroke-miterlimit:4;stroke-dasharray:none;stroke-opacity:1"
       id="path4686"
       sodipodi:type="arc"
       sodipodi:cx="114.33799"
       sodipodi:cy="111.7204"
       sodipodi:rx="8.3448362"
       sodipodi:ry="8.3507414"
       sodipodi:start="4.1442669"
       sodipodi:end="4.1432022"
       sodipodi:open="true"
       d="m 109.84805,104.68145 a 8.3448362,8.3507414 0 0 1 11.52271,2.54396 8.3448362,8.3507414 0 0 1 -2.53909,11.53154 8.3448362,8.3507414 0 0 1 -11.52406,-2.53782 8.3448362,8.3507414 0 0 1 2.53295,-11.53289" />
    <path
       style="opacity:1;fill:none;fill-opacity:1;fill-rule:nonzero;stroke:#000000;stroke-width:0.30000001;stroke-linecap:square;stroke-linejoin:round;stroke-miterlimit:4;stroke-dasharray:none;stroke-opacity:1"
       id="path4688"
       sodipodi:type="arc"
       sodipodi:cx="114.33799"
       sodipodi:cy="111.72044"
       sodipodi:rx="34.846455"
       sodipodi:ry="34.846451"
       sodipodi:start="4.1442669"
       sodipodi:end="4.1432022"
       sodipodi:open="true"
       d="M 95.588852,82.347922 A 34.846455,34.846451 0 0 1 143.70552,92.963491 34.846455,34.846451 0 0 1 133.10276,141.08298 34.846455,34.846451 0 0 1 84.980446,130.49303 34.846455,34.846451 0 0 1 95.55759,82.367901" />
    <path
       style="opacity:1;fill:none;fill-opacity:1;fill-rule:nonzero;stroke:#000000;stroke-width:0.30000001;stroke-linecap:square;stroke-linejoin:round;stroke-miterlimit:4;stroke-dasharray:none;stroke-opacity:1"
       id="path4692"
       sodipodi:type="arc"
       sodipodi:cx="114.33799"
       sodipodi:cy="99.221855"
       sodipodi:rx="1.3457091"
       sodipodi:ry="1.3528879"
       sodipodi:start="4.1442669"
       sodipodi:end="4.1432022"
       sodipodi:open="true"
       d="m 113.61393,98.081489 a 1.3457091,1.3528879 0 0 1 1.85818,0.412141 1.3457091,1.3528879 0 0 1 -0.40946,1.8682 1.3457091,1.3528879 0 0 1 -1.8584,-0.411143 1.3457091,1.3528879 0 0 1 0.40847,-1.868423" />
    <path
       style="opacity:1;fill:none;fill-opacity:1;fill-rule:nonzero;stroke:#000000;stroke-width:0.30000001;stroke-linecap:square;stroke-linejoin:round;stroke-miterlimit:4;stroke-dasharray:none;stroke-opacity:1"
       id="path4694"
       sodipodi:type="arc"
       sodipodi:cx="114.33799"
       sodipodi:cy="124.21894"
       sodipodi:rx="1.3457091"
       sodipodi:ry="1.3528879"
       sodipodi:start="4.1442669"
       sodipodi:end="4.1432022"
       sodipodi:open="true"
       d="m 113.61393,123.07857 a 1.3457091,1.3528879 0 0 1 1.85818,0.41215 1.3457091,1.3528879 0 0 1 -0.40946,1.8682 1.3457091,1.3528879 0 0 1 -1.8584,-0.41115 1.3457091,1.3528879 0 0 1 0.40847,-1.86842" />
    <path
       style="opacity:1;fill:none;fill-opacity:1;fill-rule:nonzero;stroke:#000000;stroke-width:0.30000001;stroke-linecap:square;stroke-linejoin:round;stroke-miterlimit:4;stroke-dasharray:none;stroke-opacity:1"
       id="path4706"
       sodipodi:type="arc"
       sodipodi:cx="-24.44434"
       sodipodi:cy="128.88531"
       sodipodi:rx="1.3451616"
       sodipodi:ry="1.3513185"
       sodipodi:start="4.1442669"
       sodipodi:end="4.1432022"
       sodipodi:open="true"
       d="m -25.168104,127.74627 a 1.3451616,1.3513185 0 0 1 1.857426,0.41166 1.3451616,1.3513185 0 0 1 -0.409294,1.86604 1.3451616,1.3513185 0 0 1 -1.857643,-0.41067 1.3451616,1.3513185 0 0 1 0.408304,-1.86625"
       transform="rotate(-60)"
       inkscape:transform-center-x="14.733339"
       inkscape:transform-center-y="-25.936066" />
    <path
       inkscape:transform-center-y="-0.20858453"
       inkscape:transform-center-x="29.82796"
       transform="rotate(-120)"
       d="m -139.2976,16.198134 a 1.3451616,1.3513185 0 0 1 1.85742,0.411663 1.3451616,1.3513185 0 0 1 -0.40929,1.866037 1.3451616,1.3513185 0 0 1 -1.85764,-0.41067 1.3451616,1.3513185 0 0 1 0.4083,-1.866256"
       sodipodi:open="true"
       sodipodi:end="4.1432022"
       sodipodi:start="4.1442669"
       sodipodi:ry="1.3513185"
       sodipodi:rx="1.3451616"
       sodipodi:cy="17.337177"
       sodipodi:cx="-138.57384"
       sodipodi:type="arc"
       id="path4708"
       style="opacity:1;fill:none;fill-opacity:1;fill-rule:nonzero;stroke:#000000;stroke-width:0.30000001;stroke-linecap:square;stroke-linejoin:round;stroke-miterlimit:4;stroke-dasharray:none;stroke-opacity:1" />
    <path
       style="opacity:1;fill:none;fill-opacity:1;fill-rule:nonzero;stroke:#000000;stroke-width:0.30000001;stroke-linecap:square;stroke-linejoin:round;stroke-miterlimit:4;stroke-dasharray:none;stroke-opacity:1"
       id="path4710"
       sodipodi:type="arc"
       sodipodi:cx="-99.034782"
       sodipodi:cy="-137.27573"
       sodipodi:rx="1.3451616"
       sodipodi:ry="1.3513185"
       sodipodi:start="4.1442669"
       sodipodi:end="4.1432022"
       sodipodi:open="true"
       d="m -99.758547,-138.41477 a 1.3451616,1.3513185 0 0 1 1.857426,0.41166 1.3451616,1.3513185 0 0 1 -0.409294,1.86604 1.3451616,1.3513185 0 0 1 -1.857645,-0.41067 1.3451616,1.3513185 0 0 1 0.408307,-1.86626"
       transform="scale(-1)"
       inkscape:transform-center-x="15.094621"
       inkscape:transform-center-y="25.727469" />
    <path
       inkscape:transform-center-y="25.936064"
       inkscape:transform-center-x="-14.733338"
       transform="rotate(120)"
       d="m 53.909804,-181.48029 a 1.3451616,1.3513185 0 0 1 1.857425,0.41166 1.3451616,1.3513185 0 0 1 -0.409293,1.86604 1.3451616,1.3513185 0 0 1 -1.857644,-0.41067 1.3451616,1.3513185 0 0 1 0.408305,-1.86626"
       sodipodi:open="true"
       sodipodi:end="4.1432022"
       sodipodi:start="4.1442669"
       sodipodi:ry="1.3513185"
       sodipodi:rx="1.3451616"
       sodipodi:cy="-180.34125"
       sodipodi:cx="54.633568"
       sodipodi:type="arc"
       id="path4712"
       style="opacity:1;fill:none;fill-opacity:1;fill-rule:nonzero;stroke:#000000;stroke-width:0.30000001;stroke-linecap:square;stroke-linejoin:round;stroke-miterlimit:4;stroke-dasharray:none;stroke-opacity:1" />
    <path
       style="opacity:1;fill:none;fill-opacity:1;fill-rule:nonzero;stroke:#000000;stroke-width:0.30000001;stroke-linecap:square;stroke-linejoin:round;stroke-miterlimit:4;stroke-dasharray:none;stroke-opacity:1"
       id="path4714"
       sodipodi:type="arc"
       sodipodi:cx="168.76227"
       sodipodi:cy="-68.792938"
       sodipodi:rx="1.3451616"
       sodipodi:ry="1.3513185"
       sodipodi:start="4.1442669"
       sodipodi:end="4.1432022"
       sodipodi:open="true"
       d="m 168.0385,-69.931982 a 1.3451616,1.3513185 0 0 1 1.85743,0.411664 1.3451616,1.3513185 0 0 1 -0.40929,1.866036 1.3451616,1.3513185 0 0 1 -1.85765,-0.41067 1.3451616,1.3513185 0 0 1 0.40831,-1.866255"
       transform="rotate(60)"
       inkscape:transform-center-x="-29.827963"
       inkscape:transform-center-y="0.20859224" />
    <path
       inkscape:transform-center-y="-25.727479"
       inkscape:transform-center-x="-15.094626"
       d="m 128.5002,84.681871 a 1.3451616,1.3513185 0 0 1 1.85743,0.411664 1.3451616,1.3513185 0 0 1 -0.40929,1.866037 1.3451616,1.3513185 0 0 1 -1.85765,-0.41067 1.3451616,1.3513185 0 0 1 0.40831,-1.866256"
       sodipodi:open="true"
       sodipodi:end="4.1432022"
       sodipodi:start="4.1442669"
       sodipodi:ry="1.3513185"
       sodipodi:rx="1.3451616"
       sodipodi:cy="85.820915"
       sodipodi:cx="129.22397"
       sodipodi:type="arc"
       id="path4716"
       style="opacity:1;fill:none;fill-opacity:1;fill-rule:nonzero;stroke:#000000;stroke-width:0.30000001;stroke-linecap:square;stroke-linejoin:round;stroke-miterlimit:4;stroke-dasharray:none;stroke-opacity:1" />
    <rect
       style="opacity:1;fill:none;fill-opacity:1;fill-rule:nonzero;stroke:#000000;stroke-width:0.30000001;stroke-linecap:square;stroke-linejoin:round;stroke-miterlimit:4;stroke-dasharray:none;stroke-opacity:1"
       id="rect4718"
       width="158.70001"
       height="88.699997"
       x="20.342609"
       y="164.59718"
       rx="2.6020844e-017"
       ry="2.6020841e-017" />
    <g
       id="g4732">
      <g
         id="g4738"
         transform="translate(8.8980442,11.4592)">
        <path
           style="opacity:1;fill:none;fill-opacity:1;fill-rule:nonzero;stroke:#000000;stroke-width:0.30000004;stroke-linecap:square;stroke-linejoin:round;stroke-miterlimit:4;stroke-dasharray:none;stroke-opacity:1"
           id="path4720"
           sodipodi:type="arc"
           sodipodi:cx="22.794571"
           sodipodi:cy="162.48799"
           sodipodi:rx="1.3505265"
           sodipodi:ry="1.3505872"
           sodipodi:start="4.1442669"
           sodipodi:end="4.1432022"
           sodipodi:open="true"
           d="m 22.06792,161.34956 a 1.3505265,1.3505872 0 0 1 1.864834,0.41144 1.3505265,1.3505872 0 0 1 -0.410926,1.86503 1.3505265,1.3505872 0 0 1 -1.865053,-0.41045 1.3505265,1.3505872 0 0 1 0.409933,-1.86524" />
        <path
           d="m 22.06792,231.34955 a 1.3505265,1.3505872 0 0 1 1.864834,0.41144 1.3505265,1.3505872 0 0 1 -0.410926,1.86503 1.3505265,1.3505872 0 0 1 -1.865053,-0.41045 1.3505265,1.3505872 0 0 1 0.409933,-1.86525"
           sodipodi:open="true"
           sodipodi:end="4.1432022"
           sodipodi:start="4.1442669"
           sodipodi:ry="1.3505872"
           sodipodi:rx="1.3505265"
           sodipodi:cy="232.48798"
           sodipodi:cx="22.794571"
           sodipodi:type="arc"
           id="path4722"
           style="opacity:1;fill:none;fill-opacity:1;fill-rule:nonzero;stroke:#000000;stroke-width:0.30000004;stroke-linecap:square;stroke-linejoin:round;stroke-miterlimit:4;stroke-dasharray:none;stroke-opacity:1" />
        <path
           d="m 158.06792,161.34956 a 1.3505265,1.3505872 0 0 1 1.86483,0.41144 1.3505265,1.3505872 0 0 1 -0.41092,1.86503 1.3505265,1.3505872 0 0 1 -1.86505,-0.41045 1.3505265,1.3505872 0 0 1 0.40993,-1.86524"
           sodipodi:open="true"
           sodipodi:end="4.1432022"
           sodipodi:start="4.1442669"
           sodipodi:ry="1.3505872"
           sodipodi:rx="1.3505265"
           sodipodi:cy="162.48799"
           sodipodi:cx="158.79457"
           sodipodi:type="arc"
           id="path4724"
           style="opacity:1;fill:none;fill-opacity:1;fill-rule:nonzero;stroke:#000000;stroke-width:0.30000004;stroke-linecap:square;stroke-linejoin:round;stroke-miterlimit:4;stroke-dasharray:none;stroke-opacity:1" />
        <path
           style="opacity:1;fill:none;fill-opacity:1;fill-rule:nonzero;stroke:#000000;stroke-width:0.30000004;stroke-linecap:square;stroke-linejoin:round;stroke-miterlimit:4;stroke-dasharray:none;stroke-opacity:1"
           id="path4726"
           sodipodi:type="arc"
           sodipodi:cx="158.79457"
           sodipodi:cy="232.48798"
           sodipodi:rx="1.3505265"
           sodipodi:ry="1.3505872"
           sodipodi:start="4.1442669"
           sodipodi:end="4.1432022"
           sodipodi:open="true"
           d="m 158.06792,231.34955 a 1.3505265,1.3505872 0 0 1 1.86483,0.41144 1.3505265,1.3505872 0 0 1 -0.41092,1.86503 1.3505265,1.3505872 0 0 1 -1.86505,-0.41045 1.3505265,1.3505872 0 0 1 0.40993,-1.86525" />
      </g>
    </g>
  </g>
</svg>
